M48
; DRILL file {KiCad 9.0.6} date 2026-06-23T20:06:23+0100
; FORMAT={-:-/ absolute / metric / decimal}
; #@! TF.CreationDate,2026-06-23T20:06:23+01:00
; #@! TF.GenerationSoftware,Kicad,Pcbnew,9.0.6
; #@! TF.FileFunction,Plated,1,4,PTH
FMAT,2
METRIC
; #@! TA.AperFunction,Plated,PTH,ViaDrill
T1C0.300
; #@! TA.AperFunction,Plated,PTH,ViaDrill
T2C0.500
; #@! TA.AperFunction,Plated,PTH,ComponentDrill
T3C0.700
; #@! TA.AperFunction,Plated,PTH,ComponentDrill
T4C0.750
; #@! TA.AperFunction,Plated,PTH,ComponentDrill
T5C0.800
; #@! TA.AperFunction,Plated,PTH,ComponentDrill
T6C0.900
; #@! TA.AperFunction,Plated,PTH,ComponentDrill
T7C1.000
; #@! TA.AperFunction,Plated,PTH,ComponentDrill
T8C1.092
; #@! TA.AperFunction,Plated,PTH,ComponentDrill
T9C1.100
; #@! TA.AperFunction,Plated,PTH,ComponentDrill
T10C1.190
; #@! TA.AperFunction,Plated,PTH,ComponentDrill
T11C1.300
; #@! TA.AperFunction,Plated,PTH,ComponentDrill
T12C1.500
%
G90
G05
T1
X147.32Y-191.77
X200.025Y-168.91
X200.66Y-171.45
X201.326Y-166.37
X201.977Y-173.943
X202.565Y-176.53
X202.627Y-163.83
X208.28Y-180.34
X209.074Y-163.354
X209.391Y-182.086
X210.185Y-184.15
X210.227Y-164.966
X211.455Y-167.64
X215.228Y-170.143
X215.9Y-189.23
X216.55Y-172.72
X217.17Y-185.42
X218.599Y-183.356
X224.17Y-176.53
X224.821Y-193.009
X225.471Y-180.34
X283.845Y-86.995
X283.845Y-99.06
X284.48Y-97.79
X285.115Y-107.315
X288.29Y-101.6
X294.64Y-51.435
X295.275Y-52.705
X295.91Y-53.975
X297.18Y-69.215
X298.45Y-71.755
T2
X136.21Y-197.485
X152.4Y-154.94
X154.305Y-118.745
X155.575Y-191.135
X155.756Y-169.582
X155.756Y-180.34
X162.56Y-127.635
X163.195Y-122.555
X168.275Y-149.86
X170.18Y-132.08
X170.815Y-142.24
X172.085Y-144.78
X176.53Y-156.21
X177.8Y-197.485
X179.07Y-169.545
X180.025Y-180.34
X180.975Y-127.0
X180.975Y-128.905
X180.975Y-146.05
X180.975Y-182.88
X186.055Y-140.335
X186.055Y-142.24
X188.595Y-143.51
X189.865Y-127.635
X189.865Y-136.525
X191.135Y-126.365
X192.405Y-125.095
X193.675Y-123.825
X193.675Y-186.69
X194.945Y-122.555
X194.945Y-173.99
X196.215Y-121.285
X196.85Y-142.875
X198.755Y-128.905
X201.295Y-127.635
X202.565Y-190.5
X203.835Y-126.365
X206.375Y-125.095
X208.915Y-123.825
X211.455Y-122.555
X213.958Y-122.592
X215.9Y-116.205
X216.535Y-122.555
X220.345Y-155.575
X222.25Y-159.385
X222.885Y-154.305
X226.658Y-128.307
X227.965Y-142.24
X230.505Y-132.715
X231.14Y-138.43
X231.46Y-113.665
X231.775Y-159.385
X232.41Y-150.495
X234.315Y-167.005
X234.95Y-142.24
X234.95Y-156.21
X234.987Y-172.122
X235.585Y-170.18
X236.855Y-128.905
X238.125Y-150.495
X239.395Y-122.555
X240.665Y-113.665
X243.84Y-132.08
X245.11Y-154.94
X247.015Y-118.11
X250.825Y-158.75
X251.46Y-121.285
X251.78Y-159.774
X254.0Y-157.48
X254.0Y-169.545
X255.905Y-119.38
X259.08Y-118.11
X260.985Y-114.935
X260.985Y-127.0
X260.985Y-172.085
X266.7Y-125.095
X267.335Y-154.94
X267.97Y-152.4
X268.605Y-156.21
X269.24Y-116.84
X269.24Y-141.605
X270.51Y-118.11
X271.78Y-119.38
X271.78Y-123.825
X273.685Y-119.38
X274.955Y-159.385
X276.86Y-142.875
X278.765Y-120.015
X278.765Y-138.43
X280.035Y-118.11
X283.21Y-111.125
X283.21Y-126.365
X283.21Y-158.75
X283.845Y-152.4
X284.2Y-110.135
X284.48Y-132.08
X285.75Y-109.855
X287.02Y-173.99
X288.925Y-119.38
X289.019Y-117.553
X289.24Y-115.57
X294.64Y-170.815
X295.275Y-155.575
T3
X130.175Y-172.085
X130.175Y-177.165
X130.175Y-189.865
X130.175Y-194.945
X147.32Y-172.085
X147.32Y-177.165
X147.32Y-194.945
X147.32Y-200.025
X164.465Y-172.085
X164.465Y-177.165
X164.465Y-194.945
X164.465Y-200.025
X179.705Y-189.23
X179.705Y-194.31
X197.485Y-150.495
X197.485Y-155.575
X200.66Y-197.485
X205.74Y-197.485
X215.9Y-197.485
X220.98Y-197.485
X230.505Y-134.62
X234.95Y-146.685
X234.95Y-151.765
X235.585Y-134.62
X236.855Y-172.085
X236.855Y-177.165
X236.855Y-194.945
X236.855Y-200.025
X254.0Y-146.685
X254.0Y-151.765
X254.0Y-172.085
X254.0Y-177.165
X257.175Y-201.295
X262.255Y-201.295
X269.24Y-182.245
X269.24Y-186.69
X270.51Y-146.685
X270.51Y-151.765
X270.51Y-172.085
X270.51Y-177.165
X271.145Y-197.485
X274.32Y-182.245
X274.32Y-186.69
X276.225Y-197.485
X285.115Y-172.085
X285.115Y-177.165
X287.02Y-107.95
X287.02Y-113.03
X287.02Y-146.685
X287.02Y-151.765
X290.83Y-182.245
X290.83Y-186.69
X295.91Y-182.245
X295.91Y-186.69
T4
X254.635Y-192.405
X255.905Y-191.135
X257.175Y-192.405
X304.165Y-90.805
X305.435Y-89.535
X306.705Y-90.805
T5
X133.35Y-161.925
X133.35Y-164.465
X133.35Y-167.005
X133.35Y-169.545
X133.35Y-172.085
X133.35Y-174.625
X133.35Y-177.165
X133.35Y-184.785
X133.35Y-187.325
X133.35Y-189.865
X133.35Y-192.405
X133.35Y-194.945
X133.35Y-197.485
X133.35Y-200.025
X135.89Y-106.085
X135.89Y-108.585
X137.795Y-88.9
X137.795Y-96.52
X140.97Y-161.925
X140.97Y-164.465
X140.97Y-167.005
X140.97Y-169.545
X140.97Y-172.085
X140.97Y-174.625
X140.97Y-177.165
X140.97Y-184.785
X140.97Y-187.325
X140.97Y-189.865
X140.97Y-192.405
X140.97Y-194.945
X140.97Y-197.485
X140.97Y-200.025
X150.495Y-146.05
X150.495Y-153.67
X150.495Y-161.925
X150.495Y-164.465
X150.495Y-167.005
X150.495Y-169.545
X150.495Y-172.085
X150.495Y-174.625
X150.495Y-177.165
X150.495Y-184.785
X150.495Y-187.325
X150.495Y-189.865
X150.495Y-192.405
X150.495Y-194.945
X150.495Y-197.485
X150.495Y-200.025
X158.115Y-146.05
X158.115Y-153.67
X158.115Y-161.925
X158.115Y-164.465
X158.115Y-167.005
X158.115Y-169.545
X158.115Y-172.085
X158.115Y-174.625
X158.115Y-177.165
X158.115Y-184.785
X158.115Y-187.325
X158.115Y-189.865
X158.115Y-192.405
X158.115Y-194.945
X158.115Y-197.485
X158.115Y-200.025
X163.83Y-184.785
X163.83Y-192.405
X167.005Y-135.89
X167.005Y-139.065
X167.005Y-142.24
X167.64Y-159.385
X167.64Y-161.925
X167.64Y-164.465
X167.64Y-167.005
X167.64Y-169.545
X167.64Y-172.085
X167.64Y-174.625
X167.64Y-177.165
X167.64Y-184.785
X167.64Y-187.325
X167.64Y-189.865
X167.64Y-192.405
X167.64Y-194.945
X167.64Y-197.485
X167.64Y-200.025
X174.625Y-135.89
X174.625Y-139.065
X174.625Y-142.24
X174.625Y-151.765
X175.26Y-159.385
X175.26Y-161.925
X175.26Y-164.465
X175.26Y-167.005
X175.26Y-169.545
X175.26Y-172.085
X175.26Y-174.625
X175.26Y-177.165
X175.26Y-184.785
X175.26Y-187.325
X175.26Y-189.865
X175.26Y-192.405
X175.26Y-194.945
X175.26Y-197.485
X175.26Y-200.025
X179.07Y-154.94
X179.705Y-132.715
X179.705Y-147.955
X182.245Y-132.715
X182.245Y-147.955
X182.245Y-151.765
X183.192Y-161.29
X183.192Y-163.83
X183.192Y-166.37
X183.192Y-168.91
X183.192Y-171.45
X183.192Y-173.99
X183.192Y-176.53
X183.192Y-179.07
X183.192Y-181.61
X183.192Y-184.15
X183.192Y-186.69
X183.192Y-189.23
X183.192Y-191.77
X183.192Y-194.31
X183.197Y-198.12
X184.785Y-132.715
X184.785Y-147.955
X184.785Y-151.765
X186.69Y-154.94
X187.325Y-132.715
X187.325Y-147.955
X189.865Y-132.715
X189.865Y-147.955
X190.817Y-198.12
X192.405Y-132.715
X192.405Y-147.955
X192.405Y-151.765
X194.945Y-132.715
X194.945Y-147.955
X194.945Y-198.12
X197.485Y-132.715
X197.485Y-147.955
X197.485Y-198.12
X198.433Y-161.29
X198.433Y-163.83
X198.433Y-166.37
X198.433Y-168.91
X198.433Y-171.45
X198.433Y-173.99
X198.433Y-176.53
X198.433Y-179.07
X198.433Y-181.61
X198.433Y-184.15
X198.433Y-186.69
X198.433Y-189.23
X198.433Y-191.77
X198.433Y-194.31
X200.025Y-132.715
X200.025Y-147.955
X202.565Y-132.715
X202.565Y-147.955
X205.105Y-132.715
X205.105Y-147.955
X206.058Y-161.29
X206.058Y-163.83
X206.058Y-166.37
X206.058Y-168.91
X206.058Y-171.45
X206.058Y-173.99
X206.058Y-176.53
X206.058Y-179.07
X206.058Y-181.61
X206.058Y-184.15
X206.058Y-186.69
X206.058Y-189.23
X206.058Y-191.77
X206.058Y-194.31
X207.645Y-132.715
X207.645Y-147.955
X210.185Y-132.715
X210.185Y-147.955
X212.725Y-132.715
X212.725Y-147.955
X213.677Y-161.29
X213.677Y-163.83
X213.677Y-166.37
X213.677Y-168.91
X213.677Y-171.45
X213.677Y-173.99
X213.677Y-176.53
X213.677Y-179.07
X213.677Y-181.61
X213.677Y-184.15
X213.677Y-186.69
X213.677Y-189.23
X213.677Y-191.77
X213.677Y-194.31
X215.265Y-132.715
X215.265Y-147.955
X217.805Y-132.715
X217.805Y-147.955
X220.345Y-132.715
X220.345Y-147.955
X221.297Y-161.29
X221.297Y-163.83
X221.297Y-166.37
X221.297Y-168.91
X221.297Y-171.45
X221.297Y-173.99
X221.297Y-176.53
X221.297Y-179.07
X221.297Y-181.61
X221.297Y-184.15
X221.297Y-186.69
X221.297Y-189.23
X221.297Y-191.77
X221.297Y-194.31
X222.885Y-132.715
X222.885Y-147.955
X225.425Y-132.715
X225.425Y-147.955
X227.965Y-132.715
X227.965Y-147.955
X228.917Y-161.29
X228.917Y-163.83
X228.917Y-166.37
X228.917Y-168.91
X228.917Y-171.45
X228.917Y-173.99
X228.917Y-176.53
X228.917Y-179.07
X228.917Y-181.61
X228.917Y-184.15
X228.917Y-186.69
X228.917Y-189.23
X228.917Y-191.77
X228.917Y-194.31
X240.03Y-133.985
X240.03Y-136.525
X240.03Y-139.065
X240.03Y-141.605
X240.03Y-144.145
X240.03Y-146.685
X240.03Y-149.225
X240.03Y-151.765
X240.03Y-159.385
X240.03Y-161.925
X240.03Y-164.465
X240.03Y-167.005
X240.03Y-169.545
X240.03Y-172.085
X240.03Y-174.625
X240.03Y-177.165
X240.03Y-184.785
X240.03Y-187.325
X240.03Y-189.865
X240.03Y-192.405
X240.03Y-194.945
X240.03Y-197.485
X240.03Y-200.025
X247.65Y-133.985
X247.65Y-136.525
X247.65Y-139.065
X247.65Y-141.605
X247.65Y-144.145
X247.65Y-146.685
X247.65Y-149.225
X247.65Y-151.765
X247.65Y-159.385
X247.65Y-161.925
X247.65Y-164.465
X247.65Y-167.005
X247.65Y-169.545
X247.65Y-172.085
X247.65Y-174.625
X247.65Y-177.165
X247.65Y-184.785
X247.65Y-187.325
X247.65Y-189.865
X247.65Y-192.405
X247.65Y-194.945
X247.65Y-197.485
X247.65Y-200.025
X254.635Y-198.12
X257.175Y-133.985
X257.175Y-136.525
X257.175Y-139.065
X257.175Y-141.605
X257.175Y-144.145
X257.175Y-146.685
X257.175Y-149.225
X257.175Y-151.765
X257.175Y-161.925
X257.175Y-164.465
X257.175Y-167.005
X257.175Y-169.545
X257.175Y-172.085
X257.175Y-174.625
X257.175Y-177.165
X257.81Y-182.245
X257.81Y-186.69
X260.985Y-191.77
X261.62Y-194.945
X262.255Y-198.12
X264.795Y-133.985
X264.795Y-136.525
X264.795Y-139.065
X264.795Y-141.605
X264.795Y-144.145
X264.795Y-146.685
X264.795Y-149.225
X264.795Y-151.765
X264.795Y-161.925
X264.795Y-164.465
X264.795Y-167.005
X264.795Y-169.545
X264.795Y-172.085
X264.795Y-174.625
X264.795Y-177.165
X265.43Y-182.245
X265.43Y-186.69
X268.605Y-191.77
X269.24Y-194.945
X273.685Y-133.985
X273.685Y-136.525
X273.685Y-139.065
X273.685Y-141.605
X273.685Y-144.145
X273.685Y-146.685
X273.685Y-149.225
X273.685Y-151.765
X273.685Y-161.925
X273.685Y-164.465
X273.685Y-167.005
X273.685Y-169.545
X273.685Y-172.085
X273.685Y-174.625
X273.685Y-177.165
X279.4Y-182.245
X279.4Y-186.69
X281.305Y-133.985
X281.305Y-136.525
X281.305Y-139.065
X281.305Y-141.605
X281.305Y-144.145
X281.305Y-146.685
X281.305Y-149.225
X281.305Y-151.765
X281.305Y-161.925
X281.305Y-164.465
X281.305Y-167.005
X281.305Y-169.545
X281.305Y-172.085
X281.305Y-174.625
X281.305Y-177.165
X283.845Y-191.77
X285.115Y-161.925
X285.115Y-169.545
X287.02Y-182.245
X287.02Y-186.69
X290.195Y-90.17
X290.195Y-92.71
X290.195Y-95.25
X290.195Y-97.79
X290.195Y-100.33
X290.195Y-102.87
X290.195Y-105.41
X290.195Y-107.95
X290.195Y-110.49
X290.195Y-113.03
X290.195Y-133.985
X290.195Y-136.525
X290.195Y-139.065
X290.195Y-141.605
X290.195Y-144.145
X290.195Y-146.685
X290.195Y-149.225
X290.195Y-151.765
X290.195Y-159.385
X290.195Y-161.925
X290.195Y-164.465
X290.195Y-167.005
X290.195Y-169.545
X290.195Y-172.085
X290.195Y-174.625
X290.195Y-177.165
X291.465Y-191.77
X297.815Y-90.17
X297.815Y-92.71
X297.815Y-95.25
X297.815Y-97.79
X297.815Y-100.33
X297.815Y-102.87
X297.815Y-105.41
X297.815Y-107.95
X297.815Y-110.49
X297.815Y-113.03
X297.815Y-133.985
X297.815Y-136.525
X297.815Y-139.065
X297.815Y-141.605
X297.815Y-144.145
X297.815Y-146.685
X297.815Y-149.225
X297.815Y-151.765
X297.815Y-159.385
X297.815Y-161.925
X297.815Y-164.465
X297.815Y-167.005
X297.815Y-169.545
X297.815Y-172.085
X297.815Y-174.625
X297.815Y-177.165
X300.99Y-88.265
X300.99Y-95.885
X306.705Y-110.47
X306.705Y-113.01
T6
X283.845Y-198.755
X286.385Y-198.755
T7
X128.905Y-92.075
X128.905Y-94.615
X128.905Y-97.155
X128.905Y-99.695
X128.905Y-102.235
X283.21Y-36.195
X283.21Y-38.735
X283.21Y-41.275
X288.29Y-36.195
X288.29Y-38.735
X288.29Y-41.275
X288.29Y-43.815
X288.29Y-46.355
X288.29Y-48.895
X288.29Y-51.435
X288.29Y-53.975
X288.29Y-56.515
X288.29Y-59.055
X288.29Y-61.595
X288.29Y-64.135
X288.29Y-66.675
X288.29Y-69.215
X288.29Y-71.755
X288.29Y-74.295
X288.29Y-76.835
X288.29Y-79.375
X288.29Y-81.915
X288.29Y-84.455
X306.07Y-36.195
X306.07Y-38.735
X306.07Y-41.275
X306.07Y-43.815
X306.07Y-46.355
X306.07Y-48.895
X306.07Y-51.435
X306.07Y-53.975
X306.07Y-56.515
X306.07Y-59.055
X306.07Y-61.595
X306.07Y-64.135
X306.07Y-66.675
X306.07Y-69.215
X306.07Y-71.755
X306.07Y-74.295
X306.07Y-76.835
X306.07Y-79.375
X306.07Y-81.915
X306.07Y-84.455
T8
X142.85Y-51.44
X142.85Y-53.98
X142.85Y-56.52
X142.85Y-59.06
X142.85Y-61.6
X142.85Y-64.14
X142.85Y-66.68
X142.85Y-69.22
X142.85Y-71.76
X142.85Y-74.3
X142.85Y-76.84
X142.85Y-79.38
X142.85Y-81.92
X142.85Y-84.46
X142.85Y-87.0
X142.85Y-89.54
X142.85Y-92.08
X142.85Y-94.62
X142.85Y-97.16
X142.85Y-99.7
X142.85Y-102.24
X142.85Y-104.78
X142.85Y-107.32
X142.85Y-109.86
X142.85Y-112.4
X147.93Y-51.44
X147.93Y-53.98
X147.93Y-56.52
X147.93Y-59.06
X147.93Y-61.6
X147.93Y-64.14
X147.93Y-66.68
X147.93Y-69.22
X147.93Y-71.76
X147.93Y-74.3
X147.93Y-76.84
X147.93Y-79.38
X147.93Y-81.92
X147.93Y-84.46
X147.93Y-87.0
X147.93Y-89.54
X147.93Y-92.08
X147.93Y-94.62
X147.93Y-97.16
X147.93Y-99.7
X147.93Y-102.24
X147.93Y-104.78
X147.93Y-107.32
X147.93Y-109.86
X147.93Y-112.4
X161.925Y-51.435
X161.925Y-53.975
X161.925Y-56.515
X161.925Y-59.055
X161.925Y-61.595
X161.925Y-64.135
X161.925Y-66.675
X161.925Y-69.215
X161.925Y-71.755
X161.925Y-74.295
X161.925Y-76.835
X161.925Y-79.375
X161.925Y-81.915
X161.925Y-84.455
X161.925Y-86.995
X161.925Y-89.535
X161.925Y-92.075
X161.925Y-94.615
X161.925Y-97.155
X161.925Y-99.695
X161.925Y-102.235
X161.925Y-104.775
X161.925Y-107.315
X161.925Y-109.855
X161.925Y-112.395
X167.005Y-51.435
X167.005Y-53.975
X167.005Y-56.515
X167.005Y-59.055
X167.005Y-61.595
X167.005Y-64.135
X167.005Y-66.675
X167.005Y-69.215
X167.005Y-71.755
X167.005Y-74.295
X167.005Y-76.835
X167.005Y-79.375
X167.005Y-81.915
X167.005Y-84.455
X167.005Y-86.995
X167.005Y-89.535
X167.005Y-92.075
X167.005Y-94.615
X167.005Y-97.155
X167.005Y-99.695
X167.005Y-102.235
X167.005Y-104.775
X167.005Y-107.315
X167.005Y-109.855
X167.005Y-112.395
X180.975Y-51.435
X180.975Y-53.975
X180.975Y-56.515
X180.975Y-59.055
X180.975Y-61.595
X180.975Y-64.135
X180.975Y-66.675
X180.975Y-69.215
X180.975Y-71.755
X180.975Y-74.295
X180.975Y-76.835
X180.975Y-79.375
X180.975Y-81.915
X180.975Y-84.455
X180.975Y-86.995
X180.975Y-89.535
X180.975Y-92.075
X180.975Y-94.615
X180.975Y-97.155
X180.975Y-99.695
X180.975Y-102.235
X180.975Y-104.775
X180.975Y-107.315
X180.975Y-109.855
X180.975Y-112.395
X186.055Y-51.435
X186.055Y-53.975
X186.055Y-56.515
X186.055Y-59.055
X186.055Y-61.595
X186.055Y-64.135
X186.055Y-66.675
X186.055Y-69.215
X186.055Y-71.755
X186.055Y-74.295
X186.055Y-76.835
X186.055Y-79.375
X186.055Y-81.915
X186.055Y-84.455
X186.055Y-86.995
X186.055Y-89.535
X186.055Y-92.075
X186.055Y-94.615
X186.055Y-97.155
X186.055Y-99.695
X186.055Y-102.235
X186.055Y-104.775
X186.055Y-107.315
X186.055Y-109.855
X186.055Y-112.395
X200.025Y-51.435
X200.025Y-53.975
X200.025Y-56.515
X200.025Y-59.055
X200.025Y-61.595
X200.025Y-64.135
X200.025Y-66.675
X200.025Y-69.215
X200.025Y-71.755
X200.025Y-74.295
X200.025Y-76.835
X200.025Y-79.375
X200.025Y-81.915
X200.025Y-84.455
X200.025Y-86.995
X200.025Y-89.535
X200.025Y-92.075
X200.025Y-94.615
X200.025Y-97.155
X200.025Y-99.695
X200.025Y-102.235
X200.025Y-104.775
X200.025Y-107.315
X200.025Y-109.855
X200.025Y-112.395
X205.105Y-51.435
X205.105Y-53.975
X205.105Y-56.515
X205.105Y-59.055
X205.105Y-61.595
X205.105Y-64.135
X205.105Y-66.675
X205.105Y-69.215
X205.105Y-71.755
X205.105Y-74.295
X205.105Y-76.835
X205.105Y-79.375
X205.105Y-81.915
X205.105Y-84.455
X205.105Y-86.995
X205.105Y-89.535
X205.105Y-92.075
X205.105Y-94.615
X205.105Y-97.155
X205.105Y-99.695
X205.105Y-102.235
X205.105Y-104.775
X205.105Y-107.315
X205.105Y-109.855
X205.105Y-112.395
X219.075Y-51.435
X219.075Y-53.975
X219.075Y-56.515
X219.075Y-59.055
X219.075Y-61.595
X219.075Y-64.135
X219.075Y-66.675
X219.075Y-69.215
X219.075Y-71.755
X219.075Y-74.295
X219.075Y-76.835
X219.075Y-79.375
X219.075Y-81.915
X219.075Y-84.455
X219.075Y-86.995
X219.075Y-89.535
X219.075Y-92.075
X219.075Y-94.615
X219.075Y-97.155
X219.075Y-99.695
X219.075Y-102.235
X219.075Y-104.775
X219.075Y-107.315
X219.075Y-109.855
X219.075Y-112.395
X224.155Y-51.435
X224.155Y-53.975
X224.155Y-56.515
X224.155Y-59.055
X224.155Y-61.595
X224.155Y-64.135
X224.155Y-66.675
X224.155Y-69.215
X224.155Y-71.755
X224.155Y-74.295
X224.155Y-76.835
X224.155Y-79.375
X224.155Y-81.915
X224.155Y-84.455
X224.155Y-86.995
X224.155Y-89.535
X224.155Y-92.075
X224.155Y-94.615
X224.155Y-97.155
X224.155Y-99.695
X224.155Y-102.235
X224.155Y-104.775
X224.155Y-107.315
X224.155Y-109.855
X224.155Y-112.395
X238.125Y-51.435
X238.125Y-53.975
X238.125Y-56.515
X238.125Y-59.055
X238.125Y-61.595
X238.125Y-64.135
X238.125Y-66.675
X238.125Y-69.215
X238.125Y-71.755
X238.125Y-74.295
X238.125Y-76.835
X238.125Y-79.375
X238.125Y-81.915
X238.125Y-84.455
X238.125Y-86.995
X238.125Y-89.535
X238.125Y-92.075
X238.125Y-94.615
X238.125Y-97.155
X238.125Y-99.695
X238.125Y-102.235
X238.125Y-104.775
X238.125Y-107.315
X238.125Y-109.855
X238.125Y-112.395
X243.205Y-51.435
X243.205Y-53.975
X243.205Y-56.515
X243.205Y-59.055
X243.205Y-61.595
X243.205Y-64.135
X243.205Y-66.675
X243.205Y-69.215
X243.205Y-71.755
X243.205Y-74.295
X243.205Y-76.835
X243.205Y-79.375
X243.205Y-81.915
X243.205Y-84.455
X243.205Y-86.995
X243.205Y-89.535
X243.205Y-92.075
X243.205Y-94.615
X243.205Y-97.155
X243.205Y-99.695
X243.205Y-102.235
X243.205Y-104.775
X243.205Y-107.315
X243.205Y-109.855
X243.205Y-112.395
X257.175Y-51.435
X257.175Y-53.975
X257.175Y-56.515
X257.175Y-59.055
X257.175Y-61.595
X257.175Y-64.135
X257.175Y-66.675
X257.175Y-69.215
X257.175Y-71.755
X257.175Y-74.295
X257.175Y-76.835
X257.175Y-79.375
X257.175Y-81.915
X257.175Y-84.455
X257.175Y-86.995
X257.175Y-89.535
X257.175Y-92.075
X257.175Y-94.615
X257.175Y-97.155
X257.175Y-99.695
X257.175Y-102.235
X257.175Y-104.775
X257.175Y-107.315
X257.175Y-109.855
X257.175Y-112.395
X262.255Y-51.435
X262.255Y-53.975
X262.255Y-56.515
X262.255Y-59.055
X262.255Y-61.595
X262.255Y-64.135
X262.255Y-66.675
X262.255Y-69.215
X262.255Y-71.755
X262.255Y-74.295
X262.255Y-76.835
X262.255Y-79.375
X262.255Y-81.915
X262.255Y-84.455
X262.255Y-86.995
X262.255Y-89.535
X262.255Y-92.075
X262.255Y-94.615
X262.255Y-97.155
X262.255Y-99.695
X262.255Y-102.235
X262.255Y-104.775
X262.255Y-107.315
X262.255Y-109.855
X262.255Y-112.395
X276.225Y-51.435
X276.225Y-53.975
X276.225Y-56.515
X276.225Y-59.055
X276.225Y-61.595
X276.225Y-64.135
X276.225Y-66.675
X276.225Y-69.215
X276.225Y-71.755
X276.225Y-74.295
X276.225Y-76.835
X276.225Y-79.375
X276.225Y-81.915
X276.225Y-84.455
X276.225Y-86.995
X276.225Y-89.535
X276.225Y-92.075
X276.225Y-94.615
X276.225Y-97.155
X276.225Y-99.695
X276.225Y-102.235
X276.225Y-104.775
X276.225Y-107.315
X276.225Y-109.855
X276.225Y-112.395
X281.305Y-51.435
X281.305Y-53.975
X281.305Y-56.515
X281.305Y-59.055
X281.305Y-61.595
X281.305Y-64.135
X281.305Y-66.675
X281.305Y-69.215
X281.305Y-71.755
X281.305Y-74.295
X281.305Y-76.835
X281.305Y-79.375
X281.305Y-81.915
X281.305Y-84.455
X281.305Y-86.995
X281.305Y-89.535
X281.305Y-92.075
X281.305Y-94.615
X281.305Y-97.155
X281.305Y-99.695
X281.305Y-102.235
X281.305Y-104.775
X281.305Y-107.315
X281.305Y-109.855
X281.305Y-112.395
T9
X127.635Y-85.09
X132.08Y-73.025
X132.08Y-75.565
X132.08Y-78.105
X137.795Y-85.09
T10
X274.32Y-191.77
X274.32Y-194.31
T11
X132.08Y-55.245
X132.08Y-60.245
X306.705Y-98.275
X306.705Y-104.775
T12
X129.841Y-138.875
X129.841Y-143.065
X134.031Y-138.875
X134.031Y-143.065
X138.221Y-138.875
X138.221Y-143.065
T7
X127.38Y-43.91G85X127.38Y-45.91
G05
X133.08Y-41.91G85X131.08Y-41.91
G05
X133.08Y-47.91G85X131.08Y-47.91
G05
M30
