ISO-10303-21;
HEADER;

/* File generated by HOOPS Exchange Version 24.2.0 */

FILE_DESCRIPTION(('HOOPS Exchange Step'),'2;1');

FILE_NAME('/Users/simonboak/GIT/SB-mini-II/Enclosure/Lid Rev 1/Front - Rev 1.stp',
'2026-08-07T22:01:11+01:00',
('simonboak'),
('Unknown organisation'),
'HOOPS Exchange 2024.2',
'HOOPS Exchange',
'Unknown authorisation');

FILE_SCHEMA( ('AP203_CONFIGURATION_CONTROLLED_3D_DESIGN_OF_MECHANICAL_PARTS_AND_ASSEMBLIES_MIM_LF') );

ENDSEC;

DATA;
#3=(NAMED_UNIT(*)PLANE_ANGLE_UNIT()SI_UNIT($,.RADIAN.));
#4=PLANE_ANGLE_MEASURE_WITH_UNIT(PLANE_ANGLE_MEASURE(0.0174532925),#3);
#5=(CONVERSION_BASED_UNIT('DEGREE',#4)NAMED_UNIT(#6)PLANE_ANGLE_UNIT());
#6=DIMENSIONAL_EXPONENTS(0.,0.,0.,0.,0.,0.,0.);
#7=(NAMED_UNIT(*)SI_UNIT($,.STERADIAN.)SOLID_ANGLE_UNIT());
#8=(LENGTH_UNIT()NAMED_UNIT(*)SI_UNIT(.MILLI.,.METRE.));
#9=UNCERTAINTY_MEASURE_WITH_UNIT(LENGTH_MEASURE(1.000000E-05),#8,'DISTANCE_ACCURACY_VALUE','Maximum Tolerance applied to model');
#10=(GEOMETRIC_REPRESENTATION_CONTEXT(3)GLOBAL_UNCERTAINTY_ASSIGNED_CONTEXT((#9))GLOBAL_UNIT_ASSIGNED_CONTEXT((#8,#5,#7))REPRESENTATION_CONTEXT('','root'));
#12=CARTESIAN_POINT('',(0.,0.,0.));
#13=DIRECTION('',(0.,0.,1.));
#14=DIRECTION('',(1.,0.,0.));
#15=AXIS2_PLACEMENT_3D('TS3D_PRODUCT_CSYS',#12,#13,#14);
#27=CARTESIAN_POINT('',(-98.843116622,0.70569171,-428.852674659));
#28=DIRECTION('',(-1.,0.,0.));
#29=DIRECTION('',(0.,0.,1.));
#30=AXIS2_PLACEMENT_3D('',#27,#28,#29);
#31=PLANE('',#30);
#32=CARTESIAN_POINT('',(-98.843116622,-88.657567838,103.679640309));
#33=VERTEX_POINT('',#32);
#34=CARTESIAN_POINT('',(-98.843116622,-88.657567838,20.540531749));
#35=VERTEX_POINT('',#34);
#36=CARTESIAN_POINT('',(-98.843116622,-88.657567838,103.679640309));
#37=DIRECTION('',(0.,0.,-1.));
#38=VECTOR('',#37,83.13910856);
#39=LINE('',#36,#38);
#40=EDGE_CURVE('',#33,#35,#39,.T.);
#41=ORIENTED_EDGE('',*,*,#40,.F.);
#42=CARTESIAN_POINT('',(-98.843116622,-84.657567838,107.679640309));
#43=VERTEX_POINT('',#42);
#44=CARTESIAN_POINT('',(-98.843116622,-84.657567838,103.679640309));
#45=DIRECTION('',(-1.,0.,0.));
#46=DIRECTION('',(0.,0.,1.));
#47=AXIS2_PLACEMENT_3D('',#44,#45,#46);
#48=CIRCLE('',#47,4.);
#49=EDGE_CURVE('',#33,#43,#48,.T.);
#50=ORIENTED_EDGE('',*,*,#49,.T.);
#51=CARTESIAN_POINT('',(-98.843116622,-74.657567838,107.679640309));
#52=VERTEX_POINT('',#51);
#53=CARTESIAN_POINT('',(-98.843116622,-74.657567838,107.679640309));
#54=DIRECTION('',(0.,-1.,0.));
#55=VECTOR('',#54,10.);
#56=LINE('',#53,#55);
#57=EDGE_CURVE('',#52,#43,#56,.T.);
#58=ORIENTED_EDGE('',*,*,#57,.F.);
#59=CARTESIAN_POINT('',(-98.843116622,-74.657567838,102.12278606));
#60=VERTEX_POINT('',#59);
#61=CARTESIAN_POINT('',(-98.843116622,-74.657567838,102.12278606));
#62=DIRECTION('',(0.,0.,1.));
#63=VECTOR('',#62,5.556854249);
#64=LINE('',#61,#63);
#65=EDGE_CURVE('',#60,#52,#64,.T.);
#66=ORIENTED_EDGE('',*,*,#65,.F.);
#67=CARTESIAN_POINT('',(-98.843116622,-83.100713588,93.679640309));
#68=VERTEX_POINT('',#67);
#69=CARTESIAN_POINT('',(-98.843116622,-74.657567838,93.679640309));
#70=DIRECTION('',(1.,-0.,-0.));
#71=DIRECTION('',(0.,0.,1.));
#72=AXIS2_PLACEMENT_3D('',#69,#70,#71);
#73=CIRCLE('',#72,8.443145751);
#74=EDGE_CURVE('',#60,#68,#73,.T.);
#75=ORIENTED_EDGE('',*,*,#74,.T.);
#76=CARTESIAN_POINT('',(-98.843116622,-86.353404782,93.679640309));
#77=VERTEX_POINT('',#76);
#78=CARTESIAN_POINT('',(-98.843116622,-86.353404782,93.679640309));
#79=DIRECTION('',(0.,1.,-0.));
#80=VECTOR('',#79,3.252691193);
#81=LINE('',#78,#80);
#82=EDGE_CURVE('',#77,#68,#81,.T.);
#83=ORIENTED_EDGE('',*,*,#82,.F.);
#84=CARTESIAN_POINT('',(-98.843116622,-86.353404782,21.540531749));
#85=VERTEX_POINT('',#84);
#86=CARTESIAN_POINT('',(-98.843116622,-86.353404782,93.679640309));
#87=DIRECTION('',(0.,0.,-1.));
#88=VECTOR('',#87,72.13910856);
#89=LINE('',#86,#88);
#90=EDGE_CURVE('',#77,#85,#89,.T.);
#91=ORIENTED_EDGE('',*,*,#90,.T.);
#92=CARTESIAN_POINT('',(-98.843116622,-86.353404782,20.540531749));
#93=VERTEX_POINT('',#92);
#94=CARTESIAN_POINT('',(-98.843116622,-86.353404782,21.540531749));
#95=DIRECTION('',(0.,0.,-1.));
#96=VECTOR('',#95,1.);
#97=LINE('',#94,#96);
#98=EDGE_CURVE('',#85,#93,#97,.T.);
#99=ORIENTED_EDGE('',*,*,#98,.T.);
#100=CARTESIAN_POINT('',(-98.843116622,-88.657567838,20.540531749));
#101=DIRECTION('',(0.,1.,0.));
#102=VECTOR('',#101,2.304163056);
#103=LINE('',#100,#102);
#104=EDGE_CURVE('',#35,#93,#103,.T.);
#105=ORIENTED_EDGE('',*,*,#104,.F.);
#106=EDGE_LOOP('',(#41,#50,#58,#66,#75,#83,#91,#99,#105));
#107=FACE_BOUND('',#106,.T.);
#108=ADVANCED_FACE('',(#107),#31,.T.);
#109=CARTESIAN_POINT('',(1.056883378,-86.157567838,21.540531749));
#110=DIRECTION('',(0.,-0.,1.));
#111=DIRECTION('',(0.,-1.,-0.));
#112=AXIS2_PLACEMENT_3D('',#109,#110,#111);
#113=PLANE('',#112);
#114=CARTESIAN_POINT('',(-93.554070801,-85.316146481,21.540531749));
#115=VERTEX_POINT('',#114);
#116=CARTESIAN_POINT('',(95.667837556,-85.316146481,21.540531749));
#117=VERTEX_POINT('',#116);
#118=CARTESIAN_POINT('',(-93.554070801,-85.316146481,21.540531749));
#119=DIRECTION('',(1.,0.,-0.));
#120=VECTOR('',#119,189.221908357);
#121=LINE('',#118,#120);
#122=EDGE_CURVE('',#115,#117,#121,.T.);
#123=ORIENTED_EDGE('',*,*,#122,.T.);
#124=CARTESIAN_POINT('',(95.667837556,-84.657567838,21.540531749));
#125=VERTEX_POINT('',#124);
#126=CARTESIAN_POINT('',(95.667837556,-85.316146481,21.540531749));
#127=DIRECTION('',(-0.,1.,0.));
#128=VECTOR('',#127,0.658578644);
#129=LINE('',#126,#128);
#130=EDGE_CURVE('',#117,#125,#129,.T.);
#131=ORIENTED_EDGE('',*,*,#130,.T.);
#132=CARTESIAN_POINT('',(99.300029128,-84.657567838,21.540531749));
#133=VERTEX_POINT('',#132);
#134=CARTESIAN_POINT('',(99.300029128,-84.657567838,21.540531749));
#135=DIRECTION('',(-1.,-0.,0.));
#136=VECTOR('',#135,3.632191572);
#137=LINE('',#134,#136);
#138=EDGE_CURVE('',#133,#125,#137,.T.);
#139=ORIENTED_EDGE('',*,*,#138,.F.);
#140=CARTESIAN_POINT('',(99.300029128,-86.353404782,21.540531749));
#141=VERTEX_POINT('',#140);
#142=CARTESIAN_POINT('',(99.300029128,-84.657567838,21.540531749));
#143=DIRECTION('',(0.,-1.,-0.));
#144=VECTOR('',#143,1.695836944);
#145=LINE('',#142,#144);
#146=EDGE_CURVE('',#133,#141,#145,.T.);
#147=ORIENTED_EDGE('',*,*,#146,.T.);
#148=CARTESIAN_POINT('',(100.956883378,-86.353404782,21.540531749));
#149=VERTEX_POINT('',#148);
#150=CARTESIAN_POINT('',(100.956883378,-86.353404782,21.540531749));
#151=DIRECTION('',(-1.,0.,0.));
#152=VECTOR('',#151,1.656854249);
#153=LINE('',#150,#152);
#154=EDGE_CURVE('',#149,#141,#153,.T.);
#155=ORIENTED_EDGE('',*,*,#154,.F.);
#156=CARTESIAN_POINT('',(100.352720322,-86.957567838,21.540531749));
#157=VERTEX_POINT('',#156);
#158=CARTESIAN_POINT('',(100.956883378,-86.353404782,21.540531749));
#159=DIRECTION('',(-0.707106781,-0.707106781,-0.));
#160=VECTOR('',#159,0.854415588);
#161=LINE('',#158,#160);
#162=EDGE_CURVE('',#149,#157,#161,.T.);
#163=ORIENTED_EDGE('',*,*,#162,.T.);
#164=CARTESIAN_POINT('',(-98.238953566,-86.957567838,21.540531749));
#165=VERTEX_POINT('',#164);
#166=CARTESIAN_POINT('',(100.352720322,-86.957567838,21.540531749));
#167=DIRECTION('',(-1.,-0.,0.));
#168=VECTOR('',#167,198.591673888);
#169=LINE('',#166,#168);
#170=EDGE_CURVE('',#157,#165,#169,.T.);
#171=ORIENTED_EDGE('',*,*,#170,.T.);
#172=CARTESIAN_POINT('',(-98.238953566,-86.957567838,21.540531749));
#173=DIRECTION('',(-0.707106781,0.707106781,-0.));
#174=VECTOR('',#173,0.854415588);
#175=LINE('',#172,#174);
#176=EDGE_CURVE('',#165,#85,#175,.T.);
#177=ORIENTED_EDGE('',*,*,#176,.T.);
#178=CARTESIAN_POINT('',(-97.186262373,-86.353404782,21.540531749));
#179=VERTEX_POINT('',#178);
#180=CARTESIAN_POINT('',(-98.843116622,-86.353404782,21.540531749));
#181=DIRECTION('',(1.,0.,-0.));
#182=VECTOR('',#181,1.656854249);
#183=LINE('',#180,#182);
#184=EDGE_CURVE('',#85,#179,#183,.T.);
#185=ORIENTED_EDGE('',*,*,#184,.T.);
#186=CARTESIAN_POINT('',(-97.186262373,-84.657567838,21.540531749));
#187=VERTEX_POINT('',#186);
#188=CARTESIAN_POINT('',(-97.186262373,-86.353404782,21.540531749));
#189=DIRECTION('',(0.,1.,0.));
#190=VECTOR('',#189,1.695836944);
#191=LINE('',#188,#190);
#192=EDGE_CURVE('',#179,#187,#191,.T.);
#193=ORIENTED_EDGE('',*,*,#192,.T.);
#194=CARTESIAN_POINT('',(-93.554070801,-84.657567838,21.540531749));
#195=VERTEX_POINT('',#194);
#196=CARTESIAN_POINT('',(-93.554070801,-84.657567838,21.540531749));
#197=DIRECTION('',(-1.,-0.,0.));
#198=VECTOR('',#197,3.632191572);
#199=LINE('',#196,#198);
#200=EDGE_CURVE('',#195,#187,#199,.T.);
#201=ORIENTED_EDGE('',*,*,#200,.F.);
#202=CARTESIAN_POINT('',(-93.554070801,-85.316146481,21.540531749));
#203=DIRECTION('',(-0.,1.,0.));
#204=VECTOR('',#203,0.658578644);
#205=LINE('',#202,#204);
#206=EDGE_CURVE('',#115,#195,#205,.T.);
#207=ORIENTED_EDGE('',*,*,#206,.F.);
#208=EDGE_LOOP('',(#123,#131,#139,#147,#155,#163,#171,#177,#185,#193,#201,#207));
#209=FACE_BOUND('',#208,.T.);
#210=ADVANCED_FACE('',(#209),#113,.F.);
#211=CARTESIAN_POINT('',(1.056883378,-84.657567838,6.040531749));
#212=DIRECTION('',(0.,-1.,0.));
#213=DIRECTION('',(0.,0.,-1.));
#214=AXIS2_PLACEMENT_3D('',#211,#212,#213);
#215=PLANE('',#214);
#216=ORIENTED_EDGE('',*,*,#138,.T.);
#217=CARTESIAN_POINT('',(95.667837556,-84.657567838,25.599110393));
#218=VERTEX_POINT('',#217);
#219=CARTESIAN_POINT('',(95.667837556,-84.657567838,21.540531749));
#220=DIRECTION('',(-0.,0.,1.));
#221=VECTOR('',#220,4.058578644);
#222=LINE('',#219,#221);
#223=EDGE_CURVE('',#125,#218,#222,.T.);
#224=ORIENTED_EDGE('',*,*,#223,.T.);
#225=CARTESIAN_POINT('',(-93.554070801,-84.657567838,25.599110393));
#226=VERTEX_POINT('',#225);
#227=CARTESIAN_POINT('',(95.667837556,-84.657567838,25.599110393));
#228=DIRECTION('',(-1.,0.,0.));
#229=VECTOR('',#228,189.221908357);
#230=LINE('',#227,#229);
#231=EDGE_CURVE('',#218,#226,#230,.T.);
#232=ORIENTED_EDGE('',*,*,#231,.T.);
#233=CARTESIAN_POINT('',(-93.554070801,-84.657567838,21.540531749));
#234=DIRECTION('',(-0.,0.,1.));
#235=VECTOR('',#234,4.058578644);
#236=LINE('',#233,#235);
#237=EDGE_CURVE('',#195,#226,#236,.T.);
#238=ORIENTED_EDGE('',*,*,#237,.F.);
#239=ORIENTED_EDGE('',*,*,#200,.T.);
#240=CARTESIAN_POINT('',(-97.186262373,-84.657567838,93.679640309));
#241=VERTEX_POINT('',#240);
#242=CARTESIAN_POINT('',(-97.186262373,-84.657567838,93.679640309));
#243=DIRECTION('',(0.,0.,-1.));
#244=VECTOR('',#243,72.13910856);
#245=LINE('',#242,#244);
#246=EDGE_CURVE('',#241,#187,#245,.T.);
#247=ORIENTED_EDGE('',*,*,#246,.F.);
#248=CARTESIAN_POINT('',(99.300029128,-84.657567838,93.679640309));
#249=VERTEX_POINT('',#248);
#250=CARTESIAN_POINT('',(99.300029128,-84.657567838,93.679640309));
#251=DIRECTION('',(-1.,-0.,0.));
#252=VECTOR('',#251,196.486291501);
#253=LINE('',#250,#252);
#254=EDGE_CURVE('',#249,#241,#253,.T.);
#255=ORIENTED_EDGE('',*,*,#254,.F.);
#256=CARTESIAN_POINT('',(99.300029128,-84.657567838,21.540531749));
#257=DIRECTION('',(0.,0.,1.));
#258=VECTOR('',#257,72.13910856);
#259=LINE('',#256,#258);
#260=EDGE_CURVE('',#133,#249,#259,.T.);
#261=ORIENTED_EDGE('',*,*,#260,.F.);
#262=EDGE_LOOP('',(#216,#224,#232,#238,#239,#247,#255,#261));
#263=FACE_BOUND('',#262,.T.);
#264=CARTESIAN_POINT('',(86.457983242,-84.657567838,35.145695205));
#265=VERTEX_POINT('',#264);
#266=CARTESIAN_POINT('',(77.497498947,-84.657567838,35.145695205));
#267=VERTEX_POINT('',#266);
#268=CARTESIAN_POINT('',(86.457983242,-84.657567838,35.145695205));
#269=DIRECTION('',(-1.,0.,-0.));
#270=VECTOR('',#269,8.960484295);
#271=LINE('',#268,#270);
#272=EDGE_CURVE('',#265,#267,#271,.T.);
#273=ORIENTED_EDGE('',*,*,#272,.F.);
#274=CARTESIAN_POINT('',(86.457983242,-84.657567838,44.104647305));
#275=VERTEX_POINT('',#274);
#276=CARTESIAN_POINT('',(86.457983242,-84.657567838,44.104647305));
#277=DIRECTION('',(0.,0.,-1.));
#278=VECTOR('',#277,8.9589521);
#279=LINE('',#276,#278);
#280=EDGE_CURVE('',#275,#265,#279,.T.);
#281=ORIENTED_EDGE('',*,*,#280,.F.);
#282=CARTESIAN_POINT('',(77.497498947,-84.657567838,44.104647305));
#283=VERTEX_POINT('',#282);
#284=CARTESIAN_POINT('',(77.497498947,-84.657567838,44.104647305));
#285=DIRECTION('',(1.,0.,0.));
#286=VECTOR('',#285,8.960484295);
#287=LINE('',#284,#286);
#288=EDGE_CURVE('',#283,#275,#287,.T.);
#289=ORIENTED_EDGE('',*,*,#288,.F.);
#290=CARTESIAN_POINT('',(77.497498947,-84.657567838,35.145695205));
#291=DIRECTION('',(-0.,0.,1.));
#292=VECTOR('',#291,8.9589521);
#293=LINE('',#290,#292);
#294=EDGE_CURVE('',#267,#283,#293,.T.);
#295=ORIENTED_EDGE('',*,*,#294,.F.);
#296=EDGE_LOOP('',(#273,#281,#289,#295));
#297=FACE_BOUND('',#296,.T.);
#298=ADVANCED_FACE('',(#263,#297),#215,.F.);
#299=CARTESIAN_POINT('',(73.619322241,-87.157567838,12.561055699));
#300=DIRECTION('',(0.,-1.,0.));
#301=DIRECTION('',(0.,-0.,-1.));
#302=AXIS2_PLACEMENT_3D('',#299,#300,#301);
#303=PLANE('',#302);
#304=CARTESIAN_POINT('',(77.060367739,-87.157567838,31.145695205));
#305=VERTEX_POINT('',#304);
#306=CARTESIAN_POINT('',(73.497498947,-87.157567838,34.707811052));
#307=VERTEX_POINT('',#306);
#308=CARTESIAN_POINT('',(77.060367739,-87.157567838,31.145695205));
#309=CARTESIAN_POINT('',(76.119420998,-87.157567838,31.145695205));
#310=CARTESIAN_POINT('',(74.272772332,-87.157567838,31.921564925));
#311=CARTESIAN_POINT('',(73.497498947,-87.157567838,33.765412575));
#312=CARTESIAN_POINT('',(73.497498947,-87.157567838,34.707811052));
#313=B_SPLINE_CURVE_WITH_KNOTS('',3,(#308,#309,#310,#311,#312),.UNSPECIFIED.,.F.,.F.,(4,1,4),(0.,0.500029404,1.),.UNSPECIFIED.);
#314=EDGE_CURVE('',#305,#307,#313,.T.);
#315=ORIENTED_EDGE('',*,*,#314,.F.);
#316=CARTESIAN_POINT('',(86.895114449,-87.157567838,31.145695205));
#317=VERTEX_POINT('',#316);
#318=CARTESIAN_POINT('',(77.060367739,-87.157567838,31.145695205));
#319=DIRECTION('',(1.,-0.,0.));
#320=VECTOR('',#319,9.83474671);
#321=LINE('',#318,#320);
#322=EDGE_CURVE('',#305,#317,#321,.T.);
#323=ORIENTED_EDGE('',*,*,#322,.T.);
#324=CARTESIAN_POINT('',(90.457983242,-87.157567838,34.70778475));
#325=VERTEX_POINT('',#324);
#326=CARTESIAN_POINT('',(90.457983242,-87.157567838,34.70778475));
#327=CARTESIAN_POINT('',(90.457983242,-87.157567838,33.766977674));
#328=CARTESIAN_POINT('',(89.681560893,-87.157567838,31.920492936));
#329=CARTESIAN_POINT('',(87.837634968,-87.157567838,31.145695205));
#330=CARTESIAN_POINT('',(86.895114449,-87.157567838,31.145695205));
#331=B_SPLINE_CURVE_WITH_KNOTS('',3,(#326,#327,#328,#329,#330),.UNSPECIFIED.,.F.,.F.,(4,1,4),(0.,0.499964206,1.),.UNSPECIFIED.);
#332=EDGE_CURVE('',#325,#317,#331,.T.);
#333=ORIENTED_EDGE('',*,*,#332,.F.);
#334=CARTESIAN_POINT('',(90.457983242,-87.157567838,44.542531459));
#335=VERTEX_POINT('',#334);
#336=CARTESIAN_POINT('',(90.457983242,-87.157567838,44.542531459));
#337=DIRECTION('',(0.,-0.,-1.));
#338=VECTOR('',#337,9.83474671);
#339=LINE('',#336,#338);
#340=EDGE_CURVE('',#335,#325,#339,.T.);
#341=ORIENTED_EDGE('',*,*,#340,.F.);
#342=CARTESIAN_POINT('',(86.895114449,-87.157567838,48.104647305));
#343=VERTEX_POINT('',#342);
#344=CARTESIAN_POINT('',(86.895114449,-87.157567838,48.104647305));
#345=CARTESIAN_POINT('',(87.83606119,-87.157567838,48.104647305));
#346=CARTESIAN_POINT('',(89.682709857,-87.157567838,47.328777586));
#347=CARTESIAN_POINT('',(90.457983242,-87.157567838,45.484929936));
#348=CARTESIAN_POINT('',(90.457983242,-87.157567838,44.542531459));
#349=B_SPLINE_CURVE_WITH_KNOTS('',3,(#344,#345,#346,#347,#348),.UNSPECIFIED.,.F.,.F.,(4,1,4),(0.,0.500029404,1.),.UNSPECIFIED.);
#350=EDGE_CURVE('',#343,#335,#349,.T.);
#351=ORIENTED_EDGE('',*,*,#350,.F.);
#352=CARTESIAN_POINT('',(77.060367739,-87.157567838,48.104647305));
#353=VERTEX_POINT('',#352);
#354=CARTESIAN_POINT('',(77.060367739,-87.157567838,48.104647305));
#355=DIRECTION('',(1.,-0.,0.));
#356=VECTOR('',#355,9.83474671);
#357=LINE('',#354,#356);
#358=EDGE_CURVE('',#353,#343,#357,.T.);
#359=ORIENTED_EDGE('',*,*,#358,.F.);
#360=CARTESIAN_POINT('',(73.497498947,-87.157567838,44.542557761));
#361=VERTEX_POINT('',#360);
#362=CARTESIAN_POINT('',(73.497498947,-87.157567838,44.542557761));
#363=CARTESIAN_POINT('',(73.497498947,-87.157567838,45.483364837));
#364=CARTESIAN_POINT('',(74.273921295,-87.157567838,47.329849575));
#365=CARTESIAN_POINT('',(76.11784722,-87.157567838,48.104647305));
#366=CARTESIAN_POINT('',(77.060367739,-87.157567838,48.104647305));
#367=B_SPLINE_CURVE_WITH_KNOTS('',3,(#362,#363,#364,#365,#366),.UNSPECIFIED.,.F.,.F.,(4,1,4),(0.,0.499964206,1.),.UNSPECIFIED.);
#368=EDGE_CURVE('',#361,#353,#367,.T.);
#369=ORIENTED_EDGE('',*,*,#368,.F.);
#370=CARTESIAN_POINT('',(73.497498947,-87.157567838,34.707811052));
#371=DIRECTION('',(-0.,-0.,1.));
#372=VECTOR('',#371,9.83474671);
#373=LINE('',#370,#372);
#374=EDGE_CURVE('',#307,#361,#373,.T.);
#375=ORIENTED_EDGE('',*,*,#374,.F.);
#376=EDGE_LOOP('',(#315,#323,#333,#341,#351,#359,#369,#375));
#377=FACE_BOUND('',#376,.T.);
#378=CARTESIAN_POINT('',(86.457983242,-87.157567838,44.104647305));
#379=VERTEX_POINT('',#378);
#380=CARTESIAN_POINT('',(86.457983242,-87.157567838,35.145695205));
#381=VERTEX_POINT('',#380);
#382=CARTESIAN_POINT('',(86.457983242,-87.157567838,44.104647305));
#383=DIRECTION('',(0.,-0.,-1.));
#384=VECTOR('',#383,8.9589521);
#385=LINE('',#382,#384);
#386=EDGE_CURVE('',#379,#381,#385,.T.);
#387=ORIENTED_EDGE('',*,*,#386,.T.);
#388=CARTESIAN_POINT('',(77.497498947,-87.157567838,35.145695205));
#389=VERTEX_POINT('',#388);
#390=CARTESIAN_POINT('',(86.457983242,-87.157567838,35.145695205));
#391=DIRECTION('',(-1.,-0.,-0.));
#392=VECTOR('',#391,8.960484295);
#393=LINE('',#390,#392);
#394=EDGE_CURVE('',#381,#389,#393,.T.);
#395=ORIENTED_EDGE('',*,*,#394,.T.);
#396=CARTESIAN_POINT('',(77.497498947,-87.157567838,44.104647305));
#397=VERTEX_POINT('',#396);
#398=CARTESIAN_POINT('',(77.497498947,-87.157567838,35.145695205));
#399=DIRECTION('',(-0.,0.,1.));
#400=VECTOR('',#399,8.9589521);
#401=LINE('',#398,#400);
#402=EDGE_CURVE('',#389,#397,#401,.T.);
#403=ORIENTED_EDGE('',*,*,#402,.T.);
#404=CARTESIAN_POINT('',(77.497498947,-87.157567838,44.104647305));
#405=DIRECTION('',(1.,0.,0.));
#406=VECTOR('',#405,8.960484295);
#407=LINE('',#404,#406);
#408=EDGE_CURVE('',#397,#379,#407,.T.);
#409=ORIENTED_EDGE('',*,*,#408,.T.);
#410=EDGE_LOOP('',(#387,#395,#403,#409));
#411=FACE_BOUND('',#410,.T.);
#412=ADVANCED_FACE('',(#377,#411),#303,.T.);
#413=CARTESIAN_POINT('',(1.056883378,-88.657567838,6.040531749));
#414=DIRECTION('',(0.,-1.,0.));
#415=DIRECTION('',(0.,0.,-1.));
#416=AXIS2_PLACEMENT_3D('',#413,#414,#415);
#417=PLANE('',#416);
#418=CARTESIAN_POINT('',(100.956883378,-88.657567838,20.540531749));
#419=VERTEX_POINT('',#418);
#420=CARTESIAN_POINT('',(100.956883378,-88.657567838,103.679640309));
#421=VERTEX_POINT('',#420);
#422=CARTESIAN_POINT('',(100.956883378,-88.657567838,20.540531749));
#423=DIRECTION('',(0.,0.,1.));
#424=VECTOR('',#423,83.13910856);
#425=LINE('',#422,#424);
#426=EDGE_CURVE('',#419,#421,#425,.T.);
#427=ORIENTED_EDGE('',*,*,#426,.T.);
#428=CARTESIAN_POINT('',(100.956883378,-88.657567838,103.679640309));
#429=DIRECTION('',(-1.,-0.,0.));
#430=VECTOR('',#429,199.8);
#431=LINE('',#428,#430);
#432=EDGE_CURVE('',#421,#33,#431,.T.);
#433=ORIENTED_EDGE('',*,*,#432,.T.);
#434=ORIENTED_EDGE('',*,*,#40,.T.);
#435=CARTESIAN_POINT('',(-98.843116622,-88.657567838,20.540531749));
#436=DIRECTION('',(1.,0.,-0.));
#437=VECTOR('',#436,199.8);
#438=LINE('',#435,#437);
#439=EDGE_CURVE('',#35,#419,#438,.T.);
#440=ORIENTED_EDGE('',*,*,#439,.T.);
#441=EDGE_LOOP('',(#427,#433,#434,#440));
#442=FACE_BOUND('',#441,.T.);
#443=CARTESIAN_POINT('',(-84.780221673,-88.657567838,48.104647305));
#444=VERTEX_POINT('',#443);
#445=CARTESIAN_POINT('',(-29.905158335,-88.657567838,48.104647305));
#446=VERTEX_POINT('',#445);
#447=CARTESIAN_POINT('',(-84.780221673,-88.657567838,48.104647305));
#448=DIRECTION('',(1.,0.,-0.));
#449=VECTOR('',#448,54.875063338);
#450=LINE('',#447,#449);
#451=EDGE_CURVE('',#444,#446,#450,.T.);
#452=ORIENTED_EDGE('',*,*,#451,.T.);
#453=CARTESIAN_POINT('',(-26.342289543,-88.657567838,44.542531459));
#454=VERTEX_POINT('',#453);
#455=CARTESIAN_POINT('',(-29.905158335,-88.657567838,48.104647305));
#456=CARTESIAN_POINT('',(-28.964211594,-88.657567838,48.104647305));
#457=CARTESIAN_POINT('',(-27.117562928,-88.657567838,47.328777586));
#458=CARTESIAN_POINT('',(-26.342289543,-88.657567838,45.484929936));
#459=CARTESIAN_POINT('',(-26.342289543,-88.657567838,44.542531459));
#460=B_SPLINE_CURVE_WITH_KNOTS('',3,(#455,#456,#457,#458,#459),.UNSPECIFIED.,.F.,.F.,(4,1,4),(0.,0.500029404,1.),.UNSPECIFIED.);
#461=EDGE_CURVE('',#446,#454,#460,.T.);
#462=ORIENTED_EDGE('',*,*,#461,.T.);
#463=CARTESIAN_POINT('',(-26.342289543,-88.657567838,34.70778475));
#464=VERTEX_POINT('',#463);
#465=CARTESIAN_POINT('',(-26.342289543,-88.657567838,44.542531459));
#466=DIRECTION('',(0.,-0.,-1.));
#467=VECTOR('',#466,9.83474671);
#468=LINE('',#465,#467);
#469=EDGE_CURVE('',#454,#464,#468,.T.);
#470=ORIENTED_EDGE('',*,*,#469,.T.);
#471=CARTESIAN_POINT('',(-29.905158335,-88.657567838,31.145695205));
#472=VERTEX_POINT('',#471);
#473=CARTESIAN_POINT('',(-26.342289543,-88.657567838,34.70778475));
#474=CARTESIAN_POINT('',(-26.342289543,-88.657567838,33.766977674));
#475=CARTESIAN_POINT('',(-27.118711892,-88.657567838,31.920492936));
#476=CARTESIAN_POINT('',(-28.962637816,-88.657567838,31.145695205));
#477=CARTESIAN_POINT('',(-29.905158335,-88.657567838,31.145695205));
#478=B_SPLINE_CURVE_WITH_KNOTS('',3,(#473,#474,#475,#476,#477),.UNSPECIFIED.,.F.,.F.,(4,1,4),(0.,0.499964206,1.),.UNSPECIFIED.);
#479=EDGE_CURVE('',#464,#472,#478,.T.);
#480=ORIENTED_EDGE('',*,*,#479,.T.);
#481=CARTESIAN_POINT('',(-84.780221673,-88.657567838,31.145695205));
#482=VERTEX_POINT('',#481);
#483=CARTESIAN_POINT('',(-29.905158335,-88.657567838,31.145695205));
#484=DIRECTION('',(-1.,0.,0.));
#485=VECTOR('',#484,54.875063338);
#486=LINE('',#483,#485);
#487=EDGE_CURVE('',#472,#482,#486,.T.);
#488=ORIENTED_EDGE('',*,*,#487,.T.);
#489=CARTESIAN_POINT('',(-88.343149401,-88.657567838,34.70778475));
#490=VERTEX_POINT('',#489);
#491=CARTESIAN_POINT('',(-84.780221673,-88.657567838,31.145695205));
#492=CARTESIAN_POINT('',(-85.721164925,-88.657567838,31.145695205));
#493=CARTESIAN_POINT('',(-87.56775918,-88.657567838,31.921621068));
#494=CARTESIAN_POINT('',(-88.343149401,-88.657567838,33.765399196));
#495=CARTESIAN_POINT('',(-88.343149401,-88.657567838,34.70778475));
#496=B_SPLINE_CURVE_WITH_KNOTS('',3,(#491,#492,#493,#494,#495),.UNSPECIFIED.,.F.,.F.,(4,1,4),(0.,0.500031741,1.),.UNSPECIFIED.);
#497=EDGE_CURVE('',#482,#490,#496,.T.);
#498=ORIENTED_EDGE('',*,*,#497,.T.);
#499=CARTESIAN_POINT('',(-88.343149401,-88.657567838,44.542531459));
#500=VERTEX_POINT('',#499);
#501=CARTESIAN_POINT('',(-88.343149401,-88.657567838,34.70778475));
#502=DIRECTION('',(0.,0.,1.));
#503=VECTOR('',#502,9.83474671);
#504=LINE('',#501,#503);
#505=EDGE_CURVE('',#490,#500,#504,.T.);
#506=ORIENTED_EDGE('',*,*,#505,.T.);
#507=CARTESIAN_POINT('',(-88.343149401,-88.657567838,44.542531459));
#508=CARTESIAN_POINT('',(-88.343149401,-88.657567838,45.483378731));
#509=CARTESIAN_POINT('',(-87.566689122,-88.657567838,47.329866834));
#510=CARTESIAN_POINT('',(-85.722723266,-88.657567838,48.104647305));
#511=CARTESIAN_POINT('',(-84.780221673,-88.657567838,48.104647305));
#512=B_SPLINE_CURVE_WITH_KNOTS('',3,(#507,#508,#509,#510,#511),.UNSPECIFIED.,.F.,.F.,(4,1,4),(0.,0.499977224,1.),.UNSPECIFIED.);
#513=EDGE_CURVE('',#500,#444,#512,.T.);
#514=ORIENTED_EDGE('',*,*,#513,.T.);
#515=EDGE_LOOP('',(#452,#462,#470,#480,#488,#498,#506,#514));
#516=FACE_BOUND('',#515,.T.);
#517=CARTESIAN_POINT('',(77.060367739,-88.657567838,31.145695205));
#518=VERTEX_POINT('',#517);
#519=CARTESIAN_POINT('',(86.895114449,-88.657567838,31.145695205));
#520=VERTEX_POINT('',#519);
#521=CARTESIAN_POINT('',(77.060367739,-88.657567838,31.145695205));
#522=DIRECTION('',(1.,-0.,0.));
#523=VECTOR('',#522,9.83474671);
#524=LINE('',#521,#523);
#525=EDGE_CURVE('',#518,#520,#524,.T.);
#526=ORIENTED_EDGE('',*,*,#525,.F.);
#527=CARTESIAN_POINT('',(73.497498947,-88.657567838,34.707811052));
#528=VERTEX_POINT('',#527);
#529=CARTESIAN_POINT('',(77.060367739,-88.657567838,31.145695205));
#530=CARTESIAN_POINT('',(76.119420998,-88.657567838,31.145695205));
#531=CARTESIAN_POINT('',(74.272772332,-88.657567838,31.921564925));
#532=CARTESIAN_POINT('',(73.497498947,-88.657567838,33.765412575));
#533=CARTESIAN_POINT('',(73.497498947,-88.657567838,34.707811052));
#534=B_SPLINE_CURVE_WITH_KNOTS('',3,(#529,#530,#531,#532,#533),.UNSPECIFIED.,.F.,.F.,(4,1,4),(0.,0.500029404,1.),.UNSPECIFIED.);
#535=EDGE_CURVE('',#518,#528,#534,.T.);
#536=ORIENTED_EDGE('',*,*,#535,.T.);
#537=CARTESIAN_POINT('',(73.497498947,-88.657567838,44.542557761));
#538=VERTEX_POINT('',#537);
#539=CARTESIAN_POINT('',(73.497498947,-88.657567838,34.707811052));
#540=DIRECTION('',(-0.,-0.,1.));
#541=VECTOR('',#540,9.83474671);
#542=LINE('',#539,#541);
#543=EDGE_CURVE('',#528,#538,#542,.T.);
#544=ORIENTED_EDGE('',*,*,#543,.T.);
#545=CARTESIAN_POINT('',(77.060367739,-88.657567838,48.104647305));
#546=VERTEX_POINT('',#545);
#547=CARTESIAN_POINT('',(73.497498947,-88.657567838,44.542557761));
#548=CARTESIAN_POINT('',(73.497498947,-88.657567838,45.483364837));
#549=CARTESIAN_POINT('',(74.273921295,-88.657567838,47.329849575));
#550=CARTESIAN_POINT('',(76.11784722,-88.657567838,48.104647305));
#551=CARTESIAN_POINT('',(77.060367739,-88.657567838,48.104647305));
#552=B_SPLINE_CURVE_WITH_KNOTS('',3,(#547,#548,#549,#550,#551),.UNSPECIFIED.,.F.,.F.,(4,1,4),(0.,0.499964206,1.),.UNSPECIFIED.);
#553=EDGE_CURVE('',#538,#546,#552,.T.);
#554=ORIENTED_EDGE('',*,*,#553,.T.);
#555=CARTESIAN_POINT('',(86.895114449,-88.657567838,48.104647305));
#556=VERTEX_POINT('',#555);
#557=CARTESIAN_POINT('',(77.060367739,-88.657567838,48.104647305));
#558=DIRECTION('',(1.,-0.,0.));
#559=VECTOR('',#558,9.83474671);
#560=LINE('',#557,#559);
#561=EDGE_CURVE('',#546,#556,#560,.T.);
#562=ORIENTED_EDGE('',*,*,#561,.T.);
#563=CARTESIAN_POINT('',(90.457983242,-88.657567838,44.542531459));
#564=VERTEX_POINT('',#563);
#565=CARTESIAN_POINT('',(86.895114449,-88.657567838,48.104647305));
#566=CARTESIAN_POINT('',(87.83606119,-88.657567838,48.104647305));
#567=CARTESIAN_POINT('',(89.682709857,-88.657567838,47.328777586));
#568=CARTESIAN_POINT('',(90.457983242,-88.657567838,45.484929936));
#569=CARTESIAN_POINT('',(90.457983242,-88.657567838,44.542531459));
#570=B_SPLINE_CURVE_WITH_KNOTS('',3,(#565,#566,#567,#568,#569),.UNSPECIFIED.,.F.,.F.,(4,1,4),(0.,0.500029404,1.),.UNSPECIFIED.);
#571=EDGE_CURVE('',#556,#564,#570,.T.);
#572=ORIENTED_EDGE('',*,*,#571,.T.);
#573=CARTESIAN_POINT('',(90.457983242,-88.657567838,34.70778475));
#574=VERTEX_POINT('',#573);
#575=CARTESIAN_POINT('',(90.457983242,-88.657567838,44.542531459));
#576=DIRECTION('',(0.,-0.,-1.));
#577=VECTOR('',#576,9.83474671);
#578=LINE('',#575,#577);
#579=EDGE_CURVE('',#564,#574,#578,.T.);
#580=ORIENTED_EDGE('',*,*,#579,.T.);
#581=CARTESIAN_POINT('',(90.457983242,-88.657567838,34.70778475));
#582=CARTESIAN_POINT('',(90.457983242,-88.657567838,33.766977674));
#583=CARTESIAN_POINT('',(89.681560893,-88.657567838,31.920492936));
#584=CARTESIAN_POINT('',(87.837634968,-88.657567838,31.145695205));
#585=CARTESIAN_POINT('',(86.895114449,-88.657567838,31.145695205));
#586=B_SPLINE_CURVE_WITH_KNOTS('',3,(#581,#582,#583,#584,#585),.UNSPECIFIED.,.F.,.F.,(4,1,4),(0.,0.499964206,1.),.UNSPECIFIED.);
#587=EDGE_CURVE('',#574,#520,#586,.T.);
#588=ORIENTED_EDGE('',*,*,#587,.T.);
#589=EDGE_LOOP('',(#526,#536,#544,#554,#562,#572,#580,#588));
#590=FACE_BOUND('',#589,.T.);
#591=ADVANCED_FACE('',(#442,#516,#590),#417,.T.);
#592=CARTESIAN_POINT('',(1.056883378,-86.957567838,21.540531749));
#593=DIRECTION('',(0.,-1.,0.));
#594=DIRECTION('',(0.,0.,-1.));
#595=AXIS2_PLACEMENT_3D('',#592,#593,#594);
#596=PLANE('',#595);
#597=CARTESIAN_POINT('',(100.352720322,-86.957567838,20.540531749));
#598=VERTEX_POINT('',#597);
#599=CARTESIAN_POINT('',(-98.238953566,-86.957567838,20.540531749));
#600=VERTEX_POINT('',#599);
#601=CARTESIAN_POINT('',(100.352720322,-86.957567838,20.540531749));
#602=DIRECTION('',(-1.,0.,0.));
#603=VECTOR('',#602,198.591673888);
#604=LINE('',#601,#603);
#605=EDGE_CURVE('',#598,#600,#604,.T.);
#606=ORIENTED_EDGE('',*,*,#605,.T.);
#607=CARTESIAN_POINT('',(-98.238953566,-86.957567838,21.540531749));
#608=DIRECTION('',(0.,0.,-1.));
#609=VECTOR('',#608,1.);
#610=LINE('',#607,#609);
#611=EDGE_CURVE('',#165,#600,#610,.T.);
#612=ORIENTED_EDGE('',*,*,#611,.F.);
#613=ORIENTED_EDGE('',*,*,#170,.F.);
#614=CARTESIAN_POINT('',(100.352720322,-86.957567838,21.540531749));
#615=DIRECTION('',(0.,0.,-1.));
#616=VECTOR('',#615,1.);
#617=LINE('',#614,#616);
#618=EDGE_CURVE('',#157,#598,#617,.T.);
#619=ORIENTED_EDGE('',*,*,#618,.T.);
#620=EDGE_LOOP('',(#606,#612,#613,#619));
#621=FACE_BOUND('',#620,.T.);
#622=ADVANCED_FACE('',(#621),#596,.F.);
#623=CARTESIAN_POINT('',(-248.462599103,63.266077699,21.540531749));
#624=DIRECTION('',(-0.707106781,-0.707106781,0.));
#625=DIRECTION('',(0.707106781,-0.707106781,0.));
#626=AXIS2_PLACEMENT_3D('',#623,#624,#625);
#627=PLANE('',#626);
#628=ORIENTED_EDGE('',*,*,#98,.F.);
#629=ORIENTED_EDGE('',*,*,#176,.F.);
#630=ORIENTED_EDGE('',*,*,#611,.T.);
#631=CARTESIAN_POINT('',(-98.238953566,-86.957567838,20.540531749));
#632=DIRECTION('',(-0.707106781,0.707106781,0.));
#633=VECTOR('',#632,0.854415588);
#634=LINE('',#631,#633);
#635=EDGE_CURVE('',#600,#93,#634,.T.);
#636=ORIENTED_EDGE('',*,*,#635,.T.);
#637=EDGE_LOOP('',(#628,#629,#630,#636));
#638=FACE_BOUND('',#637,.T.);
#639=ADVANCED_FACE('',(#638),#627,.F.);
#640=CARTESIAN_POINT('',(145.576365858,-41.733922301,21.540531749));
#641=DIRECTION('',(0.707106781,-0.707106781,0.));
#642=DIRECTION('',(0.707106781,0.707106781,0.));
#643=AXIS2_PLACEMENT_3D('',#640,#641,#642);
#644=PLANE('',#643);
#645=ORIENTED_EDGE('',*,*,#162,.F.);
#646=CARTESIAN_POINT('',(100.956883378,-86.353404782,20.540531749));
#647=VERTEX_POINT('',#646);
#648=CARTESIAN_POINT('',(100.956883378,-86.353404782,21.540531749));
#649=DIRECTION('',(0.,0.,-1.));
#650=VECTOR('',#649,1.);
#651=LINE('',#648,#650);
#652=EDGE_CURVE('',#149,#647,#651,.T.);
#653=ORIENTED_EDGE('',*,*,#652,.T.);
#654=CARTESIAN_POINT('',(100.956883378,-86.353404782,20.540531749));
#655=DIRECTION('',(-0.707106781,-0.707106781,0.));
#656=VECTOR('',#655,0.854415588);
#657=LINE('',#654,#656);
#658=EDGE_CURVE('',#647,#598,#657,.T.);
#659=ORIENTED_EDGE('',*,*,#658,.T.);
#660=ORIENTED_EDGE('',*,*,#618,.F.);
#661=EDGE_LOOP('',(#645,#653,#659,#660));
#662=FACE_BOUND('',#661,.T.);
#663=ADVANCED_FACE('',(#662),#644,.F.);
#664=CARTESIAN_POINT('',(-103.943116622,207.785560179,20.540531749));
#665=DIRECTION('',(0.,0.,-1.));
#666=DIRECTION('',(-1.,0.,0.));
#667=AXIS2_PLACEMENT_3D('',#664,#665,#666);
#668=PLANE('',#667);
#669=CARTESIAN_POINT('',(100.956883378,-88.657567838,20.540531749));
#670=DIRECTION('',(0.,1.,0.));
#671=VECTOR('',#670,2.304163056);
#672=LINE('',#669,#671);
#673=EDGE_CURVE('',#419,#647,#672,.T.);
#674=ORIENTED_EDGE('',*,*,#673,.F.);
#675=ORIENTED_EDGE('',*,*,#439,.F.);
#676=ORIENTED_EDGE('',*,*,#104,.T.);
#677=ORIENTED_EDGE('',*,*,#635,.F.);
#678=ORIENTED_EDGE('',*,*,#605,.F.);
#679=ORIENTED_EDGE('',*,*,#658,.F.);
#680=EDGE_LOOP('',(#674,#675,#676,#677,#678,#679));
#681=FACE_BOUND('',#680,.T.);
#682=ADVANCED_FACE('',(#681),#668,.T.);
#683=CARTESIAN_POINT('',(100.956883378,0.70569171,-449.27804383));
#684=DIRECTION('',(-1.,0.,0.));
#685=DIRECTION('',(0.,0.,1.));
#686=AXIS2_PLACEMENT_3D('',#683,#684,#685);
#687=PLANE('',#686);
#688=CARTESIAN_POINT('',(100.956883378,-74.657567838,107.679640309));
#689=VERTEX_POINT('',#688);
#690=CARTESIAN_POINT('',(100.956883378,-84.657567838,107.679640309));
#691=VERTEX_POINT('',#690);
#692=CARTESIAN_POINT('',(100.956883378,-74.657567838,107.679640309));
#693=DIRECTION('',(0.,-1.,0.));
#694=VECTOR('',#693,10.);
#695=LINE('',#692,#694);
#696=EDGE_CURVE('',#689,#691,#695,.T.);
#697=ORIENTED_EDGE('',*,*,#696,.T.);
#698=CARTESIAN_POINT('',(100.956883378,-84.657567838,103.679640309));
#699=DIRECTION('',(1.,-0.,-0.));
#700=DIRECTION('',(0.,0.,1.));
#701=AXIS2_PLACEMENT_3D('',#698,#699,#700);
#702=CIRCLE('',#701,4.);
#703=EDGE_CURVE('',#691,#421,#702,.T.);
#704=ORIENTED_EDGE('',*,*,#703,.T.);
#705=ORIENTED_EDGE('',*,*,#426,.F.);
#706=ORIENTED_EDGE('',*,*,#673,.T.);
#707=ORIENTED_EDGE('',*,*,#652,.F.);
#708=CARTESIAN_POINT('',(100.956883378,-86.353404782,93.679640309));
#709=VERTEX_POINT('',#708);
#710=CARTESIAN_POINT('',(100.956883378,-86.353404782,93.679640309));
#711=DIRECTION('',(0.,0.,-1.));
#712=VECTOR('',#711,72.13910856);
#713=LINE('',#710,#712);
#714=EDGE_CURVE('',#709,#149,#713,.T.);
#715=ORIENTED_EDGE('',*,*,#714,.F.);
#716=CARTESIAN_POINT('',(100.956883378,-83.100713588,93.679640309));
#717=VERTEX_POINT('',#716);
#718=CARTESIAN_POINT('',(100.956883378,-86.353404782,93.679640309));
#719=DIRECTION('',(0.,1.,0.));
#720=VECTOR('',#719,3.252691193);
#721=LINE('',#718,#720);
#722=EDGE_CURVE('',#709,#717,#721,.T.);
#723=ORIENTED_EDGE('',*,*,#722,.T.);
#724=CARTESIAN_POINT('',(100.956883378,-74.657567838,102.12278606));
#725=VERTEX_POINT('',#724);
#726=CARTESIAN_POINT('',(100.956883378,-74.657567838,93.679640309));
#727=DIRECTION('',(1.,-0.,-0.));
#728=DIRECTION('',(0.,0.,1.));
#729=AXIS2_PLACEMENT_3D('',#726,#727,#728);
#730=CIRCLE('',#729,8.443145751);
#731=EDGE_CURVE('',#725,#717,#730,.T.);
#732=ORIENTED_EDGE('',*,*,#731,.F.);
#733=CARTESIAN_POINT('',(100.956883378,-74.657567838,102.12278606));
#734=DIRECTION('',(0.,0.,1.));
#735=VECTOR('',#734,5.556854249);
#736=LINE('',#733,#735);
#737=EDGE_CURVE('',#725,#689,#736,.T.);
#738=ORIENTED_EDGE('',*,*,#737,.T.);
#739=EDGE_LOOP('',(#697,#704,#705,#706,#707,#715,#723,#732,#738));
#740=FACE_BOUND('',#739,.T.);
#741=ADVANCED_FACE('',(#740),#687,.F.);
#742=CARTESIAN_POINT('',(103.228456253,-74.657567838,93.679640309));
#743=DIRECTION('',(-1.,0.,0.));
#744=DIRECTION('',(0.,0.,1.));
#745=AXIS2_PLACEMENT_3D('',#742,#743,#744);
#746=CONICAL_SURFACE('',#745,6.171572875,45.);
#747=CARTESIAN_POINT('',(99.400029128,-74.657567838,103.679640309));
#748=VERTEX_POINT('',#747);
#749=CARTESIAN_POINT('',(100.956883378,-74.657567838,102.12278606));
#750=DIRECTION('',(-0.707106781,0.,0.707106781));
#751=VECTOR('',#750,2.201724394);
#752=LINE('',#749,#751);
#753=EDGE_CURVE('',#725,#748,#752,.T.);
#754=ORIENTED_EDGE('',*,*,#753,.F.);
#755=ORIENTED_EDGE('',*,*,#731,.T.);
#756=CARTESIAN_POINT('',(99.400029128,-84.657567838,93.679640309));
#757=VERTEX_POINT('',#756);
#758=CARTESIAN_POINT('',(100.956883378,-83.100713588,93.679640309));
#759=DIRECTION('',(-0.707106781,-0.707106781,-0.));
#760=VECTOR('',#759,2.201724394);
#761=LINE('',#758,#760);
#762=EDGE_CURVE('',#717,#757,#761,.T.);
#763=ORIENTED_EDGE('',*,*,#762,.T.);
#764=CARTESIAN_POINT('',(99.400029128,-74.657567838,93.679640309));
#765=DIRECTION('',(-1.,0.,0.));
#766=DIRECTION('',(0.,0.,1.));
#767=AXIS2_PLACEMENT_3D('',#764,#765,#766);
#768=CIRCLE('',#767,10.);
#769=EDGE_CURVE('',#757,#748,#768,.T.);
#770=ORIENTED_EDGE('',*,*,#769,.T.);
#771=EDGE_LOOP('',(#754,#755,#763,#770));
#772=FACE_BOUND('',#771,.T.);
#773=ADVANCED_FACE('',(#772),#746,.F.);
#774=CARTESIAN_POINT('',(1.056883378,-74.657567838,93.679640309));
#775=DIRECTION('',(-1.,0.,0.));
#776=DIRECTION('',(0.,0.,1.));
#777=AXIS2_PLACEMENT_3D('',#774,#775,#776);
#778=CYLINDRICAL_SURFACE('',#777,10.);
#779=CARTESIAN_POINT('',(97.056883378,-81.728635649,100.750708121));
#780=VERTEX_POINT('',#779);
#781=CARTESIAN_POINT('',(-94.943116622,-81.728635649,100.750708121));
#782=VERTEX_POINT('',#781);
#783=CARTESIAN_POINT('',(97.056883378,-81.728635649,100.750708121));
#784=DIRECTION('',(-1.,-0.,0.));
#785=VECTOR('',#784,192.);
#786=LINE('',#783,#785);
#787=EDGE_CURVE('',#780,#782,#786,.T.);
#788=ORIENTED_EDGE('',*,*,#787,.F.);
#789=CARTESIAN_POINT('',(97.056883378,-74.657567838,103.679640309));
#790=VERTEX_POINT('',#789);
#791=CARTESIAN_POINT('',(97.056883378,-74.657567838,93.679640309));
#792=DIRECTION('',(-1.,-0.,-0.));
#793=DIRECTION('',(0.,0.,-1.));
#794=AXIS2_PLACEMENT_3D('',#791,#792,#793);
#795=CIRCLE('',#794,10.);
#796=EDGE_CURVE('',#780,#790,#795,.T.);
#797=ORIENTED_EDGE('',*,*,#796,.T.);
#798=CARTESIAN_POINT('',(97.056883378,-74.657567838,103.679640309));
#799=DIRECTION('',(1.,0.,-0.));
#800=VECTOR('',#799,2.343145751);
#801=LINE('',#798,#800);
#802=EDGE_CURVE('',#790,#748,#801,.T.);
#803=ORIENTED_EDGE('',*,*,#802,.T.);
#804=ORIENTED_EDGE('',*,*,#769,.F.);
#805=CARTESIAN_POINT('',(99.400029128,-84.657567838,93.679640309));
#806=DIRECTION('',(-1.,0.,0.));
#807=VECTOR('',#806,0.1);
#808=LINE('',#805,#807);
#809=EDGE_CURVE('',#757,#249,#808,.T.);
#810=ORIENTED_EDGE('',*,*,#809,.T.);
#811=ORIENTED_EDGE('',*,*,#254,.T.);
#812=CARTESIAN_POINT('',(-97.286262373,-84.657567838,93.679640309));
#813=VERTEX_POINT('',#812);
#814=CARTESIAN_POINT('',(-97.286262373,-84.657567838,93.679640309));
#815=DIRECTION('',(1.,-0.,-0.));
#816=VECTOR('',#815,0.1);
#817=LINE('',#814,#816);
#818=EDGE_CURVE('',#813,#241,#817,.T.);
#819=ORIENTED_EDGE('',*,*,#818,.F.);
#820=CARTESIAN_POINT('',(-97.286262373,-74.657567838,103.679640309));
#821=VERTEX_POINT('',#820);
#822=CARTESIAN_POINT('',(-97.286262373,-74.657567838,93.679640309));
#823=DIRECTION('',(1.,0.,0.));
#824=DIRECTION('',(0.,0.,-1.));
#825=AXIS2_PLACEMENT_3D('',#822,#823,#824);
#826=CIRCLE('',#825,10.);
#827=EDGE_CURVE('',#821,#813,#826,.T.);
#828=ORIENTED_EDGE('',*,*,#827,.F.);
#829=CARTESIAN_POINT('',(-94.943116622,-74.657567838,103.679640309));
#830=VERTEX_POINT('',#829);
#831=CARTESIAN_POINT('',(-97.286262373,-74.657567838,103.679640309));
#832=DIRECTION('',(1.,0.,-0.));
#833=VECTOR('',#832,2.343145751);
#834=LINE('',#831,#833);
#835=EDGE_CURVE('',#821,#830,#834,.T.);
#836=ORIENTED_EDGE('',*,*,#835,.T.);
#837=CARTESIAN_POINT('',(-94.943116622,-74.657567838,93.679640309));
#838=DIRECTION('',(-1.,-0.,-0.));
#839=DIRECTION('',(0.,0.,-1.));
#840=AXIS2_PLACEMENT_3D('',#837,#838,#839);
#841=CIRCLE('',#840,10.);
#842=EDGE_CURVE('',#782,#830,#841,.T.);
#843=ORIENTED_EDGE('',*,*,#842,.F.);
#844=EDGE_LOOP('',(#788,#797,#803,#804,#810,#811,#819,#828,#836,#843));
#845=FACE_BOUND('',#844,.T.);
#846=ADVANCED_FACE('',(#845),#778,.F.);
#847=CARTESIAN_POINT('',(-101.114689498,-74.657567838,93.679640309));
#848=DIRECTION('',(1.,0.,0.));
#849=DIRECTION('',(0.,0.,-1.));
#850=AXIS2_PLACEMENT_3D('',#847,#848,#849);
#851=CONICAL_SURFACE('',#850,6.171572875,45.);
#852=ORIENTED_EDGE('',*,*,#74,.F.);
#853=CARTESIAN_POINT('',(-97.286262373,-74.657567838,103.679640309));
#854=DIRECTION('',(-0.707106781,-0.,-0.707106781));
#855=VECTOR('',#854,2.201724394);
#856=LINE('',#853,#855);
#857=EDGE_CURVE('',#821,#60,#856,.T.);
#858=ORIENTED_EDGE('',*,*,#857,.F.);
#859=ORIENTED_EDGE('',*,*,#827,.T.);
#860=CARTESIAN_POINT('',(-97.286262373,-84.657567838,93.679640309));
#861=DIRECTION('',(-0.707106781,0.707106781,-0.));
#862=VECTOR('',#861,2.201724394);
#863=LINE('',#860,#862);
#864=EDGE_CURVE('',#813,#68,#863,.T.);
#865=ORIENTED_EDGE('',*,*,#864,.T.);
#866=EDGE_LOOP('',(#852,#858,#859,#865));
#867=FACE_BOUND('',#866,.T.);
#868=ADVANCED_FACE('',(#867),#851,.F.);
#869=CARTESIAN_POINT('',(1.056883378,-74.657567838,-360.833356503));
#870=DIRECTION('',(0.,-1.,0.));
#871=DIRECTION('',(0.,0.,-1.));
#872=AXIS2_PLACEMENT_3D('',#869,#870,#871);
#873=PLANE('',#872);
#874=ORIENTED_EDGE('',*,*,#65,.T.);
#875=CARTESIAN_POINT('',(-98.843116622,-74.657567838,107.679640309));
#876=DIRECTION('',(1.,-0.,-0.));
#877=VECTOR('',#876,199.8);
#878=LINE('',#875,#877);
#879=EDGE_CURVE('',#52,#689,#878,.T.);
#880=ORIENTED_EDGE('',*,*,#879,.T.);
#881=ORIENTED_EDGE('',*,*,#737,.F.);
#882=ORIENTED_EDGE('',*,*,#753,.T.);
#883=ORIENTED_EDGE('',*,*,#802,.F.);
#884=CARTESIAN_POINT('',(-94.943116622,-74.657567838,103.679640309));
#885=DIRECTION('',(1.,0.,-0.));
#886=VECTOR('',#885,192.);
#887=LINE('',#884,#886);
#888=EDGE_CURVE('',#830,#790,#887,.T.);
#889=ORIENTED_EDGE('',*,*,#888,.F.);
#890=ORIENTED_EDGE('',*,*,#835,.F.);
#891=ORIENTED_EDGE('',*,*,#857,.T.);
#892=EDGE_LOOP('',(#874,#880,#881,#882,#883,#889,#890,#891));
#893=FACE_BOUND('',#892,.T.);
#894=ADVANCED_FACE('',(#893),#873,.F.);
#895=CARTESIAN_POINT('',(-29.905158335,-87.157567838,48.104647305));
#896=CARTESIAN_POINT('',(-29.905158335,-88.657567838,48.104647305));
#897=CARTESIAN_POINT('',(-28.964211594,-87.157567838,48.104647305));
#898=CARTESIAN_POINT('',(-28.964211594,-88.657567838,48.104647305));
#899=CARTESIAN_POINT('',(-27.117562928,-87.157567838,47.328777586));
#900=CARTESIAN_POINT('',(-27.117562928,-88.657567838,47.328777586));
#901=CARTESIAN_POINT('',(-26.342289543,-87.157567838,45.484929936));
#902=CARTESIAN_POINT('',(-26.342289543,-88.657567838,45.484929936));
#903=CARTESIAN_POINT('',(-26.342289543,-87.157567838,44.542531459));
#904=CARTESIAN_POINT('',(-26.342289543,-88.657567838,44.542531459));
#905=B_SPLINE_SURFACE_WITH_KNOTS('',3,1,((#895,#896),(#897,#898),(#899,#900),(#901,#902),(#903,#904)),.UNSPECIFIED.,.F.,.F.,.U.,(4,1,4),(2,2),(0.,0.500029404,1.),(0.,1.),.UNSPECIFIED.);
#906=ORIENTED_EDGE('',*,*,#461,.F.);
#907=CARTESIAN_POINT('',(-29.905158335,-87.157567838,48.104647305));
#908=VERTEX_POINT('',#907);
#909=CARTESIAN_POINT('',(-29.905158335,-87.157567838,48.104647305));
#910=DIRECTION('',(0.,-1.,0.));
#911=VECTOR('',#910,1.5);
#912=LINE('',#909,#911);
#913=EDGE_CURVE('',#908,#446,#912,.T.);
#914=ORIENTED_EDGE('',*,*,#913,.F.);
#915=CARTESIAN_POINT('',(-26.342289543,-87.157567838,44.542531459));
#916=VERTEX_POINT('',#915);
#917=CARTESIAN_POINT('',(-29.905158335,-87.157567838,48.104647305));
#918=CARTESIAN_POINT('',(-28.964211594,-87.157567838,48.104647305));
#919=CARTESIAN_POINT('',(-27.117562928,-87.157567838,47.328777586));
#920=CARTESIAN_POINT('',(-26.342289543,-87.157567838,45.484929936));
#921=CARTESIAN_POINT('',(-26.342289543,-87.157567838,44.542531459));
#922=B_SPLINE_CURVE_WITH_KNOTS('',3,(#917,#918,#919,#920,#921),.UNSPECIFIED.,.F.,.F.,(4,1,4),(0.,0.500029404,1.),.UNSPECIFIED.);
#923=EDGE_CURVE('',#908,#916,#922,.T.);
#924=ORIENTED_EDGE('',*,*,#923,.T.);
#925=CARTESIAN_POINT('',(-26.342289543,-87.157567838,44.542531459));
#926=DIRECTION('',(0.,-1.,0.));
#927=VECTOR('',#926,1.5);
#928=LINE('',#925,#927);
#929=EDGE_CURVE('',#916,#454,#928,.T.);
#930=ORIENTED_EDGE('',*,*,#929,.T.);
#931=EDGE_LOOP('',(#906,#914,#924,#930));
#932=FACE_BOUND('',#931,.T.);
#933=ADVANCED_FACE('',(#932),#905,.T.);
#934=CARTESIAN_POINT('',(-179.925873852,-87.157567838,48.104647305));
#935=DIRECTION('',(0.,0.,-1.));
#936=DIRECTION('',(-1.,0.,0.));
#937=AXIS2_PLACEMENT_3D('',#934,#935,#936);
#938=PLANE('',#937);
#939=ORIENTED_EDGE('',*,*,#451,.F.);
#940=CARTESIAN_POINT('',(-84.780221673,-87.157567838,48.104647305));
#941=VERTEX_POINT('',#940);
#942=CARTESIAN_POINT('',(-84.780221673,-87.157567838,48.104647305));
#943=DIRECTION('',(0.,-1.,0.));
#944=VECTOR('',#943,1.5);
#945=LINE('',#942,#944);
#946=EDGE_CURVE('',#941,#444,#945,.T.);
#947=ORIENTED_EDGE('',*,*,#946,.F.);
#948=CARTESIAN_POINT('',(-84.780221673,-87.157567838,48.104647305));
#949=DIRECTION('',(1.,0.,-0.));
#950=VECTOR('',#949,54.875063338);
#951=LINE('',#948,#950);
#952=EDGE_CURVE('',#941,#908,#951,.T.);
#953=ORIENTED_EDGE('',*,*,#952,.T.);
#954=ORIENTED_EDGE('',*,*,#913,.T.);
#955=EDGE_LOOP('',(#939,#947,#953,#954));
#956=FACE_BOUND('',#955,.T.);
#957=ADVANCED_FACE('',(#956),#938,.T.);
#958=CARTESIAN_POINT('',(-88.343149401,-87.157567838,44.542531459));
#959=CARTESIAN_POINT('',(-88.343149401,-88.657567838,44.542531459));
#960=CARTESIAN_POINT('',(-88.343149401,-87.157567838,45.483378731));
#961=CARTESIAN_POINT('',(-88.343149401,-88.657567838,45.483378731));
#962=CARTESIAN_POINT('',(-87.566689122,-87.157567838,47.329866834));
#963=CARTESIAN_POINT('',(-87.566689122,-88.657567838,47.329866834));
#964=CARTESIAN_POINT('',(-85.722723266,-87.157567838,48.104647305));
#965=CARTESIAN_POINT('',(-85.722723266,-88.657567838,48.104647305));
#966=CARTESIAN_POINT('',(-84.780221673,-87.157567838,48.104647305));
#967=CARTESIAN_POINT('',(-84.780221673,-88.657567838,48.104647305));
#968=B_SPLINE_SURFACE_WITH_KNOTS('',3,1,((#958,#959),(#960,#961),(#962,#963),(#964,#965),(#966,#967)),.UNSPECIFIED.,.F.,.F.,.U.,(4,1,4),(2,2),(0.,0.499977224,1.),(0.,1.),.UNSPECIFIED.);
#969=ORIENTED_EDGE('',*,*,#513,.F.);
#970=CARTESIAN_POINT('',(-88.343149401,-87.157567838,44.542531459));
#971=VERTEX_POINT('',#970);
#972=CARTESIAN_POINT('',(-88.343149401,-87.157567838,44.542531459));
#973=DIRECTION('',(0.,-1.,0.));
#974=VECTOR('',#973,1.5);
#975=LINE('',#972,#974);
#976=EDGE_CURVE('',#971,#500,#975,.T.);
#977=ORIENTED_EDGE('',*,*,#976,.F.);
#978=CARTESIAN_POINT('',(-88.343149401,-87.157567838,44.542531459));
#979=CARTESIAN_POINT('',(-88.343149401,-87.157567838,45.483378731));
#980=CARTESIAN_POINT('',(-87.566689122,-87.157567838,47.329866834));
#981=CARTESIAN_POINT('',(-85.722723266,-87.157567838,48.104647305));
#982=CARTESIAN_POINT('',(-84.780221673,-87.157567838,48.104647305));
#983=B_SPLINE_CURVE_WITH_KNOTS('',3,(#978,#979,#980,#981,#982),.UNSPECIFIED.,.F.,.F.,(4,1,4),(0.,0.499977224,1.),.UNSPECIFIED.);
#984=EDGE_CURVE('',#971,#941,#983,.T.);
#985=ORIENTED_EDGE('',*,*,#984,.T.);
#986=ORIENTED_EDGE('',*,*,#946,.T.);
#987=EDGE_LOOP('',(#969,#977,#985,#986));
#988=FACE_BOUND('',#987,.T.);
#989=ADVANCED_FACE('',(#988),#968,.T.);
#990=CARTESIAN_POINT('',(-88.343149401,-87.157567838,188.910731926));
#991=DIRECTION('',(1.,0.,0.));
#992=DIRECTION('',(0.,0.,-1.));
#993=AXIS2_PLACEMENT_3D('',#990,#991,#992);
#994=PLANE('',#993);
#995=ORIENTED_EDGE('',*,*,#505,.F.);
#996=CARTESIAN_POINT('',(-88.343149401,-87.157567838,34.70778475));
#997=VERTEX_POINT('',#996);
#998=CARTESIAN_POINT('',(-88.343149401,-87.157567838,34.70778475));
#999=DIRECTION('',(0.,-1.,0.));
#1000=VECTOR('',#999,1.5);
#1001=LINE('',#998,#1000);
#1002=EDGE_CURVE('',#997,#490,#1001,.T.);
#1003=ORIENTED_EDGE('',*,*,#1002,.F.);
#1004=CARTESIAN_POINT('',(-88.343149401,-87.157567838,34.70778475));
#1005=DIRECTION('',(0.,0.,1.));
#1006=VECTOR('',#1005,9.83474671);
#1007=LINE('',#1004,#1006);
#1008=EDGE_CURVE('',#997,#971,#1007,.T.);
#1009=ORIENTED_EDGE('',*,*,#1008,.T.);
#1010=ORIENTED_EDGE('',*,*,#976,.T.);
#1011=EDGE_LOOP('',(#995,#1003,#1009,#1010));
#1012=FACE_BOUND('',#1011,.T.);
#1013=ADVANCED_FACE('',(#1012),#994,.T.);
#1014=CARTESIAN_POINT('',(-84.780221673,-87.157567838,31.145695205));
#1015=CARTESIAN_POINT('',(-84.780221673,-88.657567838,31.145695205));
#1016=CARTESIAN_POINT('',(-85.721164925,-87.157567838,31.145695205));
#1017=CARTESIAN_POINT('',(-85.721164925,-88.657567838,31.145695205));
#1018=CARTESIAN_POINT('',(-87.56775918,-87.157567838,31.921621068));
#1019=CARTESIAN_POINT('',(-87.56775918,-88.657567838,31.921621068));
#1020=CARTESIAN_POINT('',(-88.343149401,-87.157567838,33.765399196));
#1021=CARTESIAN_POINT('',(-88.343149401,-88.657567838,33.765399196));
#1022=CARTESIAN_POINT('',(-88.343149401,-87.157567838,34.70778475));
#1023=CARTESIAN_POINT('',(-88.343149401,-88.657567838,34.70778475));
#1024=B_SPLINE_SURFACE_WITH_KNOTS('',3,1,((#1014,#1015),(#1016,#1017),(#1018,#1019),(#1020,#1021),(#1022,#1023)),.UNSPECIFIED.,.F.,.F.,.U.,(4,1,4),(2,2),(0.,0.500031741,1.),(0.,1.),.UNSPECIFIED.);
#1025=ORIENTED_EDGE('',*,*,#497,.F.);
#1026=CARTESIAN_POINT('',(-84.780221673,-87.157567838,31.145695205));
#1027=VERTEX_POINT('',#1026);
#1028=CARTESIAN_POINT('',(-84.780221673,-87.157567838,31.145695205));
#1029=DIRECTION('',(0.,-1.,0.));
#1030=VECTOR('',#1029,1.5);
#1031=LINE('',#1028,#1030);
#1032=EDGE_CURVE('',#1027,#482,#1031,.T.);
#1033=ORIENTED_EDGE('',*,*,#1032,.F.);
#1034=CARTESIAN_POINT('',(-84.780221673,-87.157567838,31.145695205));
#1035=CARTESIAN_POINT('',(-85.721164925,-87.157567838,31.145695205));
#1036=CARTESIAN_POINT('',(-87.56775918,-87.157567838,31.921621068));
#1037=CARTESIAN_POINT('',(-88.343149401,-87.157567838,33.765399196));
#1038=CARTESIAN_POINT('',(-88.343149401,-87.157567838,34.70778475));
#1039=B_SPLINE_CURVE_WITH_KNOTS('',3,(#1034,#1035,#1036,#1037,#1038),.UNSPECIFIED.,.F.,.F.,(4,1,4),(0.,0.500031741,1.),.UNSPECIFIED.);
#1040=EDGE_CURVE('',#1027,#997,#1039,.T.);
#1041=ORIENTED_EDGE('',*,*,#1040,.T.);
#1042=ORIENTED_EDGE('',*,*,#1002,.T.);
#1043=EDGE_LOOP('',(#1025,#1033,#1041,#1042));
#1044=FACE_BOUND('',#1043,.T.);
#1045=ADVANCED_FACE('',(#1044),#1024,.T.);
#1046=CARTESIAN_POINT('',(-179.925873852,-87.157567838,31.145695205));
#1047=DIRECTION('',(0.,0.,1.));
#1048=DIRECTION('',(1.,0.,0.));
#1049=AXIS2_PLACEMENT_3D('',#1046,#1047,#1048);
#1050=PLANE('',#1049);
#1051=ORIENTED_EDGE('',*,*,#487,.F.);
#1052=CARTESIAN_POINT('',(-29.905158335,-87.157567838,31.145695205));
#1053=VERTEX_POINT('',#1052);
#1054=CARTESIAN_POINT('',(-29.905158335,-87.157567838,31.145695205));
#1055=DIRECTION('',(0.,-1.,0.));
#1056=VECTOR('',#1055,1.5);
#1057=LINE('',#1054,#1056);
#1058=EDGE_CURVE('',#1053,#472,#1057,.T.);
#1059=ORIENTED_EDGE('',*,*,#1058,.F.);
#1060=CARTESIAN_POINT('',(-29.905158335,-87.157567838,31.145695205));
#1061=DIRECTION('',(-1.,0.,0.));
#1062=VECTOR('',#1061,54.875063338);
#1063=LINE('',#1060,#1062);
#1064=EDGE_CURVE('',#1053,#1027,#1063,.T.);
#1065=ORIENTED_EDGE('',*,*,#1064,.T.);
#1066=ORIENTED_EDGE('',*,*,#1032,.T.);
#1067=EDGE_LOOP('',(#1051,#1059,#1065,#1066));
#1068=FACE_BOUND('',#1067,.T.);
#1069=ADVANCED_FACE('',(#1068),#1050,.T.);
#1070=CARTESIAN_POINT('',(-26.342289543,-87.157567838,34.70778475));
#1071=CARTESIAN_POINT('',(-26.342289543,-88.657567838,34.70778475));
#1072=CARTESIAN_POINT('',(-26.342289543,-87.157567838,33.766977674));
#1073=CARTESIAN_POINT('',(-26.342289543,-88.657567838,33.766977674));
#1074=CARTESIAN_POINT('',(-27.118711892,-87.157567838,31.920492936));
#1075=CARTESIAN_POINT('',(-27.118711892,-88.657567838,31.920492936));
#1076=CARTESIAN_POINT('',(-28.962637816,-87.157567838,31.145695205));
#1077=CARTESIAN_POINT('',(-28.962637816,-88.657567838,31.145695205));
#1078=CARTESIAN_POINT('',(-29.905158335,-87.157567838,31.145695205));
#1079=CARTESIAN_POINT('',(-29.905158335,-88.657567838,31.145695205));
#1080=B_SPLINE_SURFACE_WITH_KNOTS('',3,1,((#1070,#1071),(#1072,#1073),(#1074,#1075),(#1076,#1077),(#1078,#1079)),.UNSPECIFIED.,.F.,.F.,.U.,(4,1,4),(2,2),(0.,0.499964206,1.),(0.,1.),.UNSPECIFIED.);
#1081=ORIENTED_EDGE('',*,*,#479,.F.);
#1082=CARTESIAN_POINT('',(-26.342289543,-87.157567838,34.70778475));
#1083=VERTEX_POINT('',#1082);
#1084=CARTESIAN_POINT('',(-26.342289543,-87.157567838,34.70778475));
#1085=DIRECTION('',(0.,-1.,0.));
#1086=VECTOR('',#1085,1.5);
#1087=LINE('',#1084,#1086);
#1088=EDGE_CURVE('',#1083,#464,#1087,.T.);
#1089=ORIENTED_EDGE('',*,*,#1088,.F.);
#1090=CARTESIAN_POINT('',(-26.342289543,-87.157567838,34.70778475));
#1091=CARTESIAN_POINT('',(-26.342289543,-87.157567838,33.766977674));
#1092=CARTESIAN_POINT('',(-27.118711892,-87.157567838,31.920492936));
#1093=CARTESIAN_POINT('',(-28.962637816,-87.157567838,31.145695205));
#1094=CARTESIAN_POINT('',(-29.905158335,-87.157567838,31.145695205));
#1095=B_SPLINE_CURVE_WITH_KNOTS('',3,(#1090,#1091,#1092,#1093,#1094),.UNSPECIFIED.,.F.,.F.,(4,1,4),(0.,0.499964206,1.),.UNSPECIFIED.);
#1096=EDGE_CURVE('',#1083,#1053,#1095,.T.);
#1097=ORIENTED_EDGE('',*,*,#1096,.T.);
#1098=ORIENTED_EDGE('',*,*,#1058,.T.);
#1099=EDGE_LOOP('',(#1081,#1089,#1097,#1098));
#1100=FACE_BOUND('',#1099,.T.);
#1101=ADVANCED_FACE('',(#1100),#1080,.T.);
#1102=CARTESIAN_POINT('',(-26.342289543,-87.157567838,188.910731926));
#1103=DIRECTION('',(-1.,0.,0.));
#1104=DIRECTION('',(0.,0.,1.));
#1105=AXIS2_PLACEMENT_3D('',#1102,#1103,#1104);
#1106=PLANE('',#1105);
#1107=ORIENTED_EDGE('',*,*,#469,.F.);
#1108=ORIENTED_EDGE('',*,*,#929,.F.);
#1109=CARTESIAN_POINT('',(-26.342289543,-87.157567838,44.542531459));
#1110=DIRECTION('',(0.,-0.,-1.));
#1111=VECTOR('',#1110,9.83474671);
#1112=LINE('',#1109,#1111);
#1113=EDGE_CURVE('',#916,#1083,#1112,.T.);
#1114=ORIENTED_EDGE('',*,*,#1113,.T.);
#1115=ORIENTED_EDGE('',*,*,#1088,.T.);
#1116=EDGE_LOOP('',(#1107,#1108,#1114,#1115));
#1117=FACE_BOUND('',#1116,.T.);
#1118=ADVANCED_FACE('',(#1117),#1106,.T.);
#1119=CARTESIAN_POINT('',(73.619322241,-87.157567838,12.561055699));
#1120=DIRECTION('',(0.,-1.,0.));
#1121=DIRECTION('',(0.,-0.,-1.));
#1122=AXIS2_PLACEMENT_3D('',#1119,#1120,#1121);
#1123=PLANE('',#1122);
#1124=ORIENTED_EDGE('',*,*,#923,.F.);
#1125=ORIENTED_EDGE('',*,*,#952,.F.);
#1126=ORIENTED_EDGE('',*,*,#984,.F.);
#1127=ORIENTED_EDGE('',*,*,#1008,.F.);
#1128=ORIENTED_EDGE('',*,*,#1040,.F.);
#1129=ORIENTED_EDGE('',*,*,#1064,.F.);
#1130=ORIENTED_EDGE('',*,*,#1096,.F.);
#1131=ORIENTED_EDGE('',*,*,#1113,.F.);
#1132=EDGE_LOOP('',(#1124,#1125,#1126,#1127,#1128,#1129,#1130,#1131));
#1133=FACE_BOUND('',#1132,.T.);
#1134=ADVANCED_FACE('',(#1133),#1123,.T.);
#1135=CARTESIAN_POINT('',(77.060367739,-87.157567838,31.145695205));
#1136=CARTESIAN_POINT('',(77.060367739,-88.657567838,31.145695205));
#1137=CARTESIAN_POINT('',(76.119420998,-87.157567838,31.145695205));
#1138=CARTESIAN_POINT('',(76.119420998,-88.657567838,31.145695205));
#1139=CARTESIAN_POINT('',(74.272772332,-87.157567838,31.921564925));
#1140=CARTESIAN_POINT('',(74.272772332,-88.657567838,31.921564925));
#1141=CARTESIAN_POINT('',(73.497498947,-87.157567838,33.765412575));
#1142=CARTESIAN_POINT('',(73.497498947,-88.657567838,33.765412575));
#1143=CARTESIAN_POINT('',(73.497498947,-87.157567838,34.707811052));
#1144=CARTESIAN_POINT('',(73.497498947,-88.657567838,34.707811052));
#1145=B_SPLINE_SURFACE_WITH_KNOTS('',3,1,((#1135,#1136),(#1137,#1138),(#1139,#1140),(#1141,#1142),(#1143,#1144)),.UNSPECIFIED.,.F.,.F.,.U.,(4,1,4),(2,2),(0.,0.500029404,1.),(0.,1.),.UNSPECIFIED.);
#1146=ORIENTED_EDGE('',*,*,#535,.F.);
#1147=CARTESIAN_POINT('',(77.060367739,-87.157567838,31.145695205));
#1148=DIRECTION('',(0.,-1.,0.));
#1149=VECTOR('',#1148,1.5);
#1150=LINE('',#1147,#1149);
#1151=EDGE_CURVE('',#305,#518,#1150,.T.);
#1152=ORIENTED_EDGE('',*,*,#1151,.F.);
#1153=ORIENTED_EDGE('',*,*,#314,.T.);
#1154=CARTESIAN_POINT('',(73.497498947,-87.157567838,34.707811052));
#1155=DIRECTION('',(0.,-1.,0.));
#1156=VECTOR('',#1155,1.5);
#1157=LINE('',#1154,#1156);
#1158=EDGE_CURVE('',#307,#528,#1157,.T.);
#1159=ORIENTED_EDGE('',*,*,#1158,.T.);
#1160=EDGE_LOOP('',(#1146,#1152,#1153,#1159));
#1161=FACE_BOUND('',#1160,.T.);
#1162=ADVANCED_FACE('',(#1161),#1145,.T.);
#1163=CARTESIAN_POINT('',(-67.307832727,-87.157567838,31.145695205));
#1164=DIRECTION('',(0.,0.,-1.));
#1165=DIRECTION('',(-1.,0.,-0.));
#1166=AXIS2_PLACEMENT_3D('',#1163,#1164,#1165);
#1167=PLANE('',#1166);
#1168=ORIENTED_EDGE('',*,*,#525,.T.);
#1169=CARTESIAN_POINT('',(86.895114449,-87.157567838,31.145695205));
#1170=DIRECTION('',(0.,-1.,0.));
#1171=VECTOR('',#1170,1.5);
#1172=LINE('',#1169,#1171);
#1173=EDGE_CURVE('',#317,#520,#1172,.T.);
#1174=ORIENTED_EDGE('',*,*,#1173,.F.);
#1175=ORIENTED_EDGE('',*,*,#322,.F.);
#1176=ORIENTED_EDGE('',*,*,#1151,.T.);
#1177=EDGE_LOOP('',(#1168,#1174,#1175,#1176));
#1178=FACE_BOUND('',#1177,.T.);
#1179=ADVANCED_FACE('',(#1178),#1167,.F.);
#1180=CARTESIAN_POINT('',(90.457983242,-87.157567838,34.70778475));
#1181=CARTESIAN_POINT('',(90.457983242,-88.657567838,34.70778475));
#1182=CARTESIAN_POINT('',(90.457983242,-87.157567838,33.766977674));
#1183=CARTESIAN_POINT('',(90.457983242,-88.657567838,33.766977674));
#1184=CARTESIAN_POINT('',(89.681560893,-87.157567838,31.920492936));
#1185=CARTESIAN_POINT('',(89.681560893,-88.657567838,31.920492936));
#1186=CARTESIAN_POINT('',(87.837634968,-87.157567838,31.145695205));
#1187=CARTESIAN_POINT('',(87.837634968,-88.657567838,31.145695205));
#1188=CARTESIAN_POINT('',(86.895114449,-87.157567838,31.145695205));
#1189=CARTESIAN_POINT('',(86.895114449,-88.657567838,31.145695205));
#1190=B_SPLINE_SURFACE_WITH_KNOTS('',3,1,((#1180,#1181),(#1182,#1183),(#1184,#1185),(#1186,#1187),(#1188,#1189)),.UNSPECIFIED.,.F.,.F.,.U.,(4,1,4),(2,2),(0.,0.499964206,1.),(0.,1.),.UNSPECIFIED.);
#1191=ORIENTED_EDGE('',*,*,#587,.F.);
#1192=CARTESIAN_POINT('',(90.457983242,-87.157567838,34.70778475));
#1193=DIRECTION('',(0.,-1.,0.));
#1194=VECTOR('',#1193,1.5);
#1195=LINE('',#1192,#1194);
#1196=EDGE_CURVE('',#325,#574,#1195,.T.);
#1197=ORIENTED_EDGE('',*,*,#1196,.F.);
#1198=ORIENTED_EDGE('',*,*,#332,.T.);
#1199=ORIENTED_EDGE('',*,*,#1173,.T.);
#1200=EDGE_LOOP('',(#1191,#1197,#1198,#1199));
#1201=FACE_BOUND('',#1200,.T.);
#1202=ADVANCED_FACE('',(#1201),#1190,.T.);
#1203=CARTESIAN_POINT('',(90.457983242,-87.157567838,188.910731926));
#1204=DIRECTION('',(-1.,0.,0.));
#1205=DIRECTION('',(0.,0.,1.));
#1206=AXIS2_PLACEMENT_3D('',#1203,#1204,#1205);
#1207=PLANE('',#1206);
#1208=ORIENTED_EDGE('',*,*,#579,.F.);
#1209=CARTESIAN_POINT('',(90.457983242,-87.157567838,44.542531459));
#1210=DIRECTION('',(0.,-1.,0.));
#1211=VECTOR('',#1210,1.5);
#1212=LINE('',#1209,#1211);
#1213=EDGE_CURVE('',#335,#564,#1212,.T.);
#1214=ORIENTED_EDGE('',*,*,#1213,.F.);
#1215=ORIENTED_EDGE('',*,*,#340,.T.);
#1216=ORIENTED_EDGE('',*,*,#1196,.T.);
#1217=EDGE_LOOP('',(#1208,#1214,#1215,#1216));
#1218=FACE_BOUND('',#1217,.T.);
#1219=ADVANCED_FACE('',(#1218),#1207,.T.);
#1220=CARTESIAN_POINT('',(86.895114449,-87.157567838,48.104647305));
#1221=CARTESIAN_POINT('',(86.895114449,-88.657567838,48.104647305));
#1222=CARTESIAN_POINT('',(87.83606119,-87.157567838,48.104647305));
#1223=CARTESIAN_POINT('',(87.83606119,-88.657567838,48.104647305));
#1224=CARTESIAN_POINT('',(89.682709857,-87.157567838,47.328777586));
#1225=CARTESIAN_POINT('',(89.682709857,-88.657567838,47.328777586));
#1226=CARTESIAN_POINT('',(90.457983242,-87.157567838,45.484929936));
#1227=CARTESIAN_POINT('',(90.457983242,-88.657567838,45.484929936));
#1228=CARTESIAN_POINT('',(90.457983242,-87.157567838,44.542531459));
#1229=CARTESIAN_POINT('',(90.457983242,-88.657567838,44.542531459));
#1230=B_SPLINE_SURFACE_WITH_KNOTS('',3,1,((#1220,#1221),(#1222,#1223),(#1224,#1225),(#1226,#1227),(#1228,#1229)),.UNSPECIFIED.,.F.,.F.,.U.,(4,1,4),(2,2),(0.,0.500029404,1.),(0.,1.),.UNSPECIFIED.);
#1231=ORIENTED_EDGE('',*,*,#571,.F.);
#1232=CARTESIAN_POINT('',(86.895114449,-87.157567838,48.104647305));
#1233=DIRECTION('',(0.,-1.,0.));
#1234=VECTOR('',#1233,1.5);
#1235=LINE('',#1232,#1234);
#1236=EDGE_CURVE('',#343,#556,#1235,.T.);
#1237=ORIENTED_EDGE('',*,*,#1236,.F.);
#1238=ORIENTED_EDGE('',*,*,#350,.T.);
#1239=ORIENTED_EDGE('',*,*,#1213,.T.);
#1240=EDGE_LOOP('',(#1231,#1237,#1238,#1239));
#1241=FACE_BOUND('',#1240,.T.);
#1242=ADVANCED_FACE('',(#1241),#1230,.T.);
#1243=CARTESIAN_POINT('',(-67.307832727,-87.157567838,48.104647305));
#1244=DIRECTION('',(0.,0.,-1.));
#1245=DIRECTION('',(-1.,0.,-0.));
#1246=AXIS2_PLACEMENT_3D('',#1243,#1244,#1245);
#1247=PLANE('',#1246);
#1248=ORIENTED_EDGE('',*,*,#561,.F.);
#1249=CARTESIAN_POINT('',(77.060367739,-87.157567838,48.104647305));
#1250=DIRECTION('',(0.,-1.,0.));
#1251=VECTOR('',#1250,1.5);
#1252=LINE('',#1249,#1251);
#1253=EDGE_CURVE('',#353,#546,#1252,.T.);
#1254=ORIENTED_EDGE('',*,*,#1253,.F.);
#1255=ORIENTED_EDGE('',*,*,#358,.T.);
#1256=ORIENTED_EDGE('',*,*,#1236,.T.);
#1257=EDGE_LOOP('',(#1248,#1254,#1255,#1256));
#1258=FACE_BOUND('',#1257,.T.);
#1259=ADVANCED_FACE('',(#1258),#1247,.T.);
#1260=CARTESIAN_POINT('',(73.497498947,-87.157567838,44.542557761));
#1261=CARTESIAN_POINT('',(73.497498947,-88.657567838,44.542557761));
#1262=CARTESIAN_POINT('',(73.497498947,-87.157567838,45.483364837));
#1263=CARTESIAN_POINT('',(73.497498947,-88.657567838,45.483364837));
#1264=CARTESIAN_POINT('',(74.273921295,-87.157567838,47.329849575));
#1265=CARTESIAN_POINT('',(74.273921295,-88.657567838,47.329849575));
#1266=CARTESIAN_POINT('',(76.11784722,-87.157567838,48.104647305));
#1267=CARTESIAN_POINT('',(76.11784722,-88.657567838,48.104647305));
#1268=CARTESIAN_POINT('',(77.060367739,-87.157567838,48.104647305));
#1269=CARTESIAN_POINT('',(77.060367739,-88.657567838,48.104647305));
#1270=B_SPLINE_SURFACE_WITH_KNOTS('',3,1,((#1260,#1261),(#1262,#1263),(#1264,#1265),(#1266,#1267),(#1268,#1269)),.UNSPECIFIED.,.F.,.F.,.U.,(4,1,4),(2,2),(0.,0.499964206,1.),(0.,1.),.UNSPECIFIED.);
#1271=ORIENTED_EDGE('',*,*,#553,.F.);
#1272=CARTESIAN_POINT('',(73.497498947,-87.157567838,44.542557761));
#1273=DIRECTION('',(0.,-1.,0.));
#1274=VECTOR('',#1273,1.5);
#1275=LINE('',#1272,#1274);
#1276=EDGE_CURVE('',#361,#538,#1275,.T.);
#1277=ORIENTED_EDGE('',*,*,#1276,.F.);
#1278=ORIENTED_EDGE('',*,*,#368,.T.);
#1279=ORIENTED_EDGE('',*,*,#1253,.T.);
#1280=EDGE_LOOP('',(#1271,#1277,#1278,#1279));
#1281=FACE_BOUND('',#1280,.T.);
#1282=ADVANCED_FACE('',(#1281),#1270,.T.);
#1283=CARTESIAN_POINT('',(73.497498947,-87.157567838,-109.660389415));
#1284=DIRECTION('',(1.,0.,0.));
#1285=DIRECTION('',(0.,0.,-1.));
#1286=AXIS2_PLACEMENT_3D('',#1283,#1284,#1285);
#1287=PLANE('',#1286);
#1288=ORIENTED_EDGE('',*,*,#543,.F.);
#1289=ORIENTED_EDGE('',*,*,#1158,.F.);
#1290=ORIENTED_EDGE('',*,*,#374,.T.);
#1291=ORIENTED_EDGE('',*,*,#1276,.T.);
#1292=EDGE_LOOP('',(#1288,#1289,#1290,#1291));
#1293=FACE_BOUND('',#1292,.T.);
#1294=ADVANCED_FACE('',(#1293),#1287,.T.);
#1295=CARTESIAN_POINT('',(-67.307832727,-77.854180678,35.145695205));
#1296=DIRECTION('',(-0.,0.,1.));
#1297=DIRECTION('',(1.,0.,0.));
#1298=AXIS2_PLACEMENT_3D('',#1295,#1296,#1297);
#1299=PLANE('',#1298);
#1300=ORIENTED_EDGE('',*,*,#272,.T.);
#1301=CARTESIAN_POINT('',(77.497498947,-84.657567838,35.145695205));
#1302=DIRECTION('',(0.,-1.,0.));
#1303=VECTOR('',#1302,2.5);
#1304=LINE('',#1301,#1303);
#1305=EDGE_CURVE('',#267,#389,#1304,.T.);
#1306=ORIENTED_EDGE('',*,*,#1305,.T.);
#1307=ORIENTED_EDGE('',*,*,#394,.F.);
#1308=CARTESIAN_POINT('',(86.457983242,-84.657567838,35.145695205));
#1309=DIRECTION('',(0.,-1.,0.));
#1310=VECTOR('',#1309,2.5);
#1311=LINE('',#1308,#1310);
#1312=EDGE_CURVE('',#265,#381,#1311,.T.);
#1313=ORIENTED_EDGE('',*,*,#1312,.F.);
#1314=EDGE_LOOP('',(#1300,#1306,#1307,#1313));
#1315=FACE_BOUND('',#1314,.T.);
#1316=ADVANCED_FACE('',(#1315),#1299,.T.);
#1317=CARTESIAN_POINT('',(86.457983242,-77.854180678,188.910731926));
#1318=DIRECTION('',(-1.,0.,0.));
#1319=DIRECTION('',(0.,0.,1.));
#1320=AXIS2_PLACEMENT_3D('',#1317,#1318,#1319);
#1321=PLANE('',#1320);
#1322=ORIENTED_EDGE('',*,*,#280,.T.);
#1323=ORIENTED_EDGE('',*,*,#1312,.T.);
#1324=ORIENTED_EDGE('',*,*,#386,.F.);
#1325=CARTESIAN_POINT('',(86.457983242,-84.657567838,44.104647305));
#1326=DIRECTION('',(0.,-1.,0.));
#1327=VECTOR('',#1326,2.5);
#1328=LINE('',#1325,#1327);
#1329=EDGE_CURVE('',#275,#379,#1328,.T.);
#1330=ORIENTED_EDGE('',*,*,#1329,.F.);
#1331=EDGE_LOOP('',(#1322,#1323,#1324,#1330));
#1332=FACE_BOUND('',#1331,.T.);
#1333=ADVANCED_FACE('',(#1332),#1321,.T.);
#1334=CARTESIAN_POINT('',(-67.307832727,-77.854180678,44.104647305));
#1335=DIRECTION('',(0.,0.,-1.));
#1336=DIRECTION('',(-1.,0.,-0.));
#1337=AXIS2_PLACEMENT_3D('',#1334,#1335,#1336);
#1338=PLANE('',#1337);
#1339=ORIENTED_EDGE('',*,*,#288,.T.);
#1340=ORIENTED_EDGE('',*,*,#1329,.T.);
#1341=ORIENTED_EDGE('',*,*,#408,.F.);
#1342=CARTESIAN_POINT('',(77.497498947,-84.657567838,44.104647305));
#1343=DIRECTION('',(0.,-1.,0.));
#1344=VECTOR('',#1343,2.5);
#1345=LINE('',#1342,#1344);
#1346=EDGE_CURVE('',#283,#397,#1345,.T.);
#1347=ORIENTED_EDGE('',*,*,#1346,.F.);
#1348=EDGE_LOOP('',(#1339,#1340,#1341,#1347));
#1349=FACE_BOUND('',#1348,.T.);
#1350=ADVANCED_FACE('',(#1349),#1338,.T.);
#1351=CARTESIAN_POINT('',(77.497498947,-77.854180678,-109.660389415));
#1352=DIRECTION('',(1.,0.,0.));
#1353=DIRECTION('',(0.,0.,-1.));
#1354=AXIS2_PLACEMENT_3D('',#1351,#1352,#1353);
#1355=PLANE('',#1354);
#1356=ORIENTED_EDGE('',*,*,#294,.T.);
#1357=ORIENTED_EDGE('',*,*,#1346,.T.);
#1358=ORIENTED_EDGE('',*,*,#402,.F.);
#1359=ORIENTED_EDGE('',*,*,#1305,.F.);
#1360=EDGE_LOOP('',(#1356,#1357,#1358,#1359));
#1361=FACE_BOUND('',#1360,.T.);
#1362=ADVANCED_FACE('',(#1361),#1355,.T.);
#1363=CARTESIAN_POINT('',(102.706883378,5.407773238,93.679640309));
#1364=DIRECTION('',(0.,0.,-1.));
#1365=DIRECTION('',(0.,1.,0.));
#1366=AXIS2_PLACEMENT_3D('',#1363,#1364,#1365);
#1367=PLANE('',#1366);
#1368=ORIENTED_EDGE('',*,*,#762,.F.);
#1369=ORIENTED_EDGE('',*,*,#722,.F.);
#1370=CARTESIAN_POINT('',(99.300029128,-86.353404782,93.679640309));
#1371=VERTEX_POINT('',#1370);
#1372=CARTESIAN_POINT('',(100.956883378,-86.353404782,93.679640309));
#1373=DIRECTION('',(-1.,0.,0.));
#1374=VECTOR('',#1373,1.656854249);
#1375=LINE('',#1372,#1374);
#1376=EDGE_CURVE('',#709,#1371,#1375,.T.);
#1377=ORIENTED_EDGE('',*,*,#1376,.T.);
#1378=CARTESIAN_POINT('',(99.300029128,-84.657567838,93.679640309));
#1379=DIRECTION('',(0.,-1.,-0.));
#1380=VECTOR('',#1379,1.695836944);
#1381=LINE('',#1378,#1380);
#1382=EDGE_CURVE('',#249,#1371,#1381,.T.);
#1383=ORIENTED_EDGE('',*,*,#1382,.F.);
#1384=ORIENTED_EDGE('',*,*,#809,.F.);
#1385=EDGE_LOOP('',(#1368,#1369,#1377,#1383,#1384));
#1386=FACE_BOUND('',#1385,.T.);
#1387=ADVANCED_FACE('',(#1386),#1367,.T.);
#1388=CARTESIAN_POINT('',(99.300029128,-84.657567838,93.679640309));
#1389=DIRECTION('',(1.,0.,0.));
#1390=DIRECTION('',(0.,0.,-1.));
#1391=AXIS2_PLACEMENT_3D('',#1388,#1389,#1390);
#1392=PLANE('',#1391);
#1393=ORIENTED_EDGE('',*,*,#260,.T.);
#1394=ORIENTED_EDGE('',*,*,#1382,.T.);
#1395=CARTESIAN_POINT('',(99.300029128,-86.353404782,93.679640309));
#1396=DIRECTION('',(0.,0.,-1.));
#1397=VECTOR('',#1396,72.13910856);
#1398=LINE('',#1395,#1397);
#1399=EDGE_CURVE('',#1371,#141,#1398,.T.);
#1400=ORIENTED_EDGE('',*,*,#1399,.T.);
#1401=ORIENTED_EDGE('',*,*,#146,.F.);
#1402=EDGE_LOOP('',(#1393,#1394,#1400,#1401));
#1403=FACE_BOUND('',#1402,.T.);
#1404=ADVANCED_FACE('',(#1403),#1392,.T.);
#1405=CARTESIAN_POINT('',(101.056883378,-86.353404782,93.679640309));
#1406=DIRECTION('',(0.,-1.,0.));
#1407=DIRECTION('',(0.,0.,-1.));
#1408=AXIS2_PLACEMENT_3D('',#1405,#1406,#1407);
#1409=PLANE('',#1408);
#1410=ORIENTED_EDGE('',*,*,#154,.T.);
#1411=ORIENTED_EDGE('',*,*,#1399,.F.);
#1412=ORIENTED_EDGE('',*,*,#1376,.F.);
#1413=ORIENTED_EDGE('',*,*,#714,.T.);
#1414=EDGE_LOOP('',(#1410,#1411,#1412,#1413));
#1415=FACE_BOUND('',#1414,.T.);
#1416=ADVANCED_FACE('',(#1415),#1409,.F.);
#1417=CARTESIAN_POINT('',(-97.286262373,-86.353404782,93.179640309));
#1418=DIRECTION('',(0.,-1.,-0.));
#1419=DIRECTION('',(0.,0.,-1.));
#1420=AXIS2_PLACEMENT_3D('',#1417,#1418,#1419);
#1421=PLANE('',#1420);
#1422=ORIENTED_EDGE('',*,*,#90,.F.);
#1423=CARTESIAN_POINT('',(-97.186262373,-86.353404782,93.679640309));
#1424=VERTEX_POINT('',#1423);
#1425=CARTESIAN_POINT('',(-97.186262373,-86.353404782,93.679640309));
#1426=DIRECTION('',(-1.,-0.,0.));
#1427=VECTOR('',#1426,1.656854249);
#1428=LINE('',#1425,#1427);
#1429=EDGE_CURVE('',#1424,#77,#1428,.T.);
#1430=ORIENTED_EDGE('',*,*,#1429,.F.);
#1431=CARTESIAN_POINT('',(-97.186262373,-86.353404782,93.679640309));
#1432=DIRECTION('',(0.,0.,-1.));
#1433=VECTOR('',#1432,72.13910856);
#1434=LINE('',#1431,#1433);
#1435=EDGE_CURVE('',#1424,#179,#1434,.T.);
#1436=ORIENTED_EDGE('',*,*,#1435,.T.);
#1437=ORIENTED_EDGE('',*,*,#184,.F.);
#1438=EDGE_LOOP('',(#1422,#1430,#1436,#1437));
#1439=FACE_BOUND('',#1438,.T.);
#1440=ADVANCED_FACE('',(#1439),#1421,.F.);
#1441=CARTESIAN_POINT('',(-97.186262373,-84.657567838,93.179640309));
#1442=DIRECTION('',(1.,0.,0.));
#1443=DIRECTION('',(0.,0.,-1.));
#1444=AXIS2_PLACEMENT_3D('',#1441,#1442,#1443);
#1445=PLANE('',#1444);
#1446=ORIENTED_EDGE('',*,*,#1435,.F.);
#1447=CARTESIAN_POINT('',(-97.186262373,-84.657567838,93.679640309));
#1448=DIRECTION('',(0.,-1.,0.));
#1449=VECTOR('',#1448,1.695836944);
#1450=LINE('',#1447,#1449);
#1451=EDGE_CURVE('',#241,#1424,#1450,.T.);
#1452=ORIENTED_EDGE('',*,*,#1451,.F.);
#1453=ORIENTED_EDGE('',*,*,#246,.T.);
#1454=ORIENTED_EDGE('',*,*,#192,.F.);
#1455=EDGE_LOOP('',(#1446,#1452,#1453,#1454));
#1456=FACE_BOUND('',#1455,.T.);
#1457=ADVANCED_FACE('',(#1456),#1445,.F.);
#1458=CARTESIAN_POINT('',(-98.114689498,-84.627059185,93.679640309));
#1459=DIRECTION('',(0.,0.,1.));
#1460=DIRECTION('',(0.,-1.,0.));
#1461=AXIS2_PLACEMENT_3D('',#1458,#1459,#1460);
#1462=PLANE('',#1461);
#1463=ORIENTED_EDGE('',*,*,#1451,.T.);
#1464=ORIENTED_EDGE('',*,*,#1429,.T.);
#1465=ORIENTED_EDGE('',*,*,#82,.T.);
#1466=ORIENTED_EDGE('',*,*,#864,.F.);
#1467=ORIENTED_EDGE('',*,*,#818,.T.);
#1468=EDGE_LOOP('',(#1463,#1464,#1465,#1466,#1467));
#1469=FACE_BOUND('',#1468,.T.);
#1470=ADVANCED_FACE('',(#1469),#1462,.F.);
#1471=CARTESIAN_POINT('',(97.056883378,-71.541738461,103.679640309));
#1472=DIRECTION('',(0.,0.,-1.));
#1473=DIRECTION('',(-1.,0.,0.));
#1474=AXIS2_PLACEMENT_3D('',#1471,#1472,#1473);
#1475=PLANE('',#1474);
#1476=CARTESIAN_POINT('',(-94.943116622,-71.541738461,103.679640309));
#1477=VERTEX_POINT('',#1476);
#1478=CARTESIAN_POINT('',(-94.943116622,-71.541738461,103.679640309));
#1479=DIRECTION('',(0.,-1.,0.));
#1480=VECTOR('',#1479,3.115829376);
#1481=LINE('',#1478,#1480);
#1482=EDGE_CURVE('',#1477,#830,#1481,.T.);
#1483=ORIENTED_EDGE('',*,*,#1482,.T.);
#1484=ORIENTED_EDGE('',*,*,#888,.T.);
#1485=CARTESIAN_POINT('',(97.056883378,-71.541738461,103.679640309));
#1486=VERTEX_POINT('',#1485);
#1487=CARTESIAN_POINT('',(97.056883378,-71.541738461,103.679640309));
#1488=DIRECTION('',(0.,-1.,0.));
#1489=VECTOR('',#1488,3.115829376);
#1490=LINE('',#1487,#1489);
#1491=EDGE_CURVE('',#1486,#790,#1490,.T.);
#1492=ORIENTED_EDGE('',*,*,#1491,.F.);
#1493=CARTESIAN_POINT('',(97.056883378,-71.541738461,103.679640309));
#1494=DIRECTION('',(-1.,-0.,0.));
#1495=VECTOR('',#1494,192.);
#1496=LINE('',#1493,#1495);
#1497=EDGE_CURVE('',#1486,#1477,#1496,.T.);
#1498=ORIENTED_EDGE('',*,*,#1497,.T.);
#1499=EDGE_LOOP('',(#1483,#1484,#1492,#1498));
#1500=FACE_BOUND('',#1499,.T.);
#1501=ADVANCED_FACE('',(#1500),#1475,.F.);
#1502=CARTESIAN_POINT('',(97.056883378,5.492432162,102.879640309));
#1503=DIRECTION('',(1.,0.,0.));
#1504=DIRECTION('',(0.,0.,-1.));
#1505=AXIS2_PLACEMENT_3D('',#1502,#1503,#1504);
#1506=PLANE('',#1505);
#1507=ORIENTED_EDGE('',*,*,#796,.F.);
#1508=CARTESIAN_POINT('',(97.056883378,-71.541738461,100.750708121));
#1509=VERTEX_POINT('',#1508);
#1510=CARTESIAN_POINT('',(97.056883378,-81.728635649,100.750708121));
#1511=DIRECTION('',(0.,1.,0.));
#1512=VECTOR('',#1511,10.186897188);
#1513=LINE('',#1510,#1512);
#1514=EDGE_CURVE('',#780,#1509,#1513,.T.);
#1515=ORIENTED_EDGE('',*,*,#1514,.T.);
#1516=CARTESIAN_POINT('',(97.056883378,-71.541738461,100.750708121));
#1517=DIRECTION('',(0.,0.,1.));
#1518=VECTOR('',#1517,2.928932188);
#1519=LINE('',#1516,#1518);
#1520=EDGE_CURVE('',#1509,#1486,#1519,.T.);
#1521=ORIENTED_EDGE('',*,*,#1520,.T.);
#1522=ORIENTED_EDGE('',*,*,#1491,.T.);
#1523=EDGE_LOOP('',(#1507,#1515,#1521,#1522));
#1524=FACE_BOUND('',#1523,.T.);
#1525=ADVANCED_FACE('',(#1524),#1506,.T.);
#1526=CARTESIAN_POINT('',(-94.943116622,5.492432162,102.879640309));
#1527=DIRECTION('',(1.,0.,0.));
#1528=DIRECTION('',(0.,0.,-1.));
#1529=AXIS2_PLACEMENT_3D('',#1526,#1527,#1528);
#1530=PLANE('',#1529);
#1531=CARTESIAN_POINT('',(-94.943116622,-71.541738461,100.750708121));
#1532=VERTEX_POINT('',#1531);
#1533=CARTESIAN_POINT('',(-94.943116622,-81.728635649,100.750708121));
#1534=DIRECTION('',(0.,1.,0.));
#1535=VECTOR('',#1534,10.186897188);
#1536=LINE('',#1533,#1535);
#1537=EDGE_CURVE('',#782,#1532,#1536,.T.);
#1538=ORIENTED_EDGE('',*,*,#1537,.F.);
#1539=ORIENTED_EDGE('',*,*,#842,.T.);
#1540=ORIENTED_EDGE('',*,*,#1482,.F.);
#1541=CARTESIAN_POINT('',(-94.943116622,-71.541738461,100.750708121));
#1542=DIRECTION('',(0.,0.,1.));
#1543=VECTOR('',#1542,2.928932188);
#1544=LINE('',#1541,#1543);
#1545=EDGE_CURVE('',#1532,#1477,#1544,.T.);
#1546=ORIENTED_EDGE('',*,*,#1545,.F.);
#1547=EDGE_LOOP('',(#1538,#1539,#1540,#1546));
#1548=FACE_BOUND('',#1547,.T.);
#1549=ADVANCED_FACE('',(#1548),#1530,.F.);
#1550=CARTESIAN_POINT('',(97.056883378,-81.728635649,100.750708121));
#1551=DIRECTION('',(0.,0.,1.));
#1552=DIRECTION('',(1.,0.,0.));
#1553=AXIS2_PLACEMENT_3D('',#1550,#1551,#1552);
#1554=PLANE('',#1553);
#1555=ORIENTED_EDGE('',*,*,#1537,.T.);
#1556=CARTESIAN_POINT('',(97.056883378,-71.541738461,100.750708121));
#1557=DIRECTION('',(-1.,-0.,0.));
#1558=VECTOR('',#1557,192.);
#1559=LINE('',#1556,#1558);
#1560=EDGE_CURVE('',#1509,#1532,#1559,.T.);
#1561=ORIENTED_EDGE('',*,*,#1560,.F.);
#1562=ORIENTED_EDGE('',*,*,#1514,.F.);
#1563=ORIENTED_EDGE('',*,*,#787,.T.);
#1564=EDGE_LOOP('',(#1555,#1561,#1562,#1563));
#1565=FACE_BOUND('',#1564,.T.);
#1566=ADVANCED_FACE('',(#1565),#1554,.F.);
#1567=CARTESIAN_POINT('',(97.056883378,-71.541738461,100.750708121));
#1568=DIRECTION('',(0.,-1.,0.));
#1569=DIRECTION('',(1.,0.,0.));
#1570=AXIS2_PLACEMENT_3D('',#1567,#1568,#1569);
#1571=PLANE('',#1570);
#1572=ORIENTED_EDGE('',*,*,#1545,.T.);
#1573=ORIENTED_EDGE('',*,*,#1497,.F.);
#1574=ORIENTED_EDGE('',*,*,#1520,.F.);
#1575=ORIENTED_EDGE('',*,*,#1560,.T.);
#1576=EDGE_LOOP('',(#1572,#1573,#1574,#1575));
#1577=FACE_BOUND('',#1576,.T.);
#1578=ADVANCED_FACE('',(#1577),#1571,.F.);
#1579=CARTESIAN_POINT('',(96.667837556,-85.316146481,25.599110393));
#1580=DIRECTION('',(0.,-1.,0.));
#1581=DIRECTION('',(0.,0.,-1.));
#1582=AXIS2_PLACEMENT_3D('',#1579,#1580,#1581);
#1583=PLANE('',#1582);
#1584=CARTESIAN_POINT('',(-93.554070801,-85.316146481,25.599110393));
#1585=VERTEX_POINT('',#1584);
#1586=CARTESIAN_POINT('',(-93.554070801,-85.316146481,25.599110393));
#1587=DIRECTION('',(0.,0.,-1.));
#1588=VECTOR('',#1587,4.058578644);
#1589=LINE('',#1586,#1588);
#1590=EDGE_CURVE('',#1585,#115,#1589,.T.);
#1591=ORIENTED_EDGE('',*,*,#1590,.F.);
#1592=CARTESIAN_POINT('',(95.667837556,-85.316146481,25.599110393));
#1593=VERTEX_POINT('',#1592);
#1594=CARTESIAN_POINT('',(95.667837556,-85.316146481,25.599110393));
#1595=DIRECTION('',(-1.,0.,0.));
#1596=VECTOR('',#1595,189.221908357);
#1597=LINE('',#1594,#1596);
#1598=EDGE_CURVE('',#1593,#1585,#1597,.T.);
#1599=ORIENTED_EDGE('',*,*,#1598,.F.);
#1600=CARTESIAN_POINT('',(95.667837556,-85.316146481,25.599110393));
#1601=DIRECTION('',(0.,0.,-1.));
#1602=VECTOR('',#1601,4.058578644);
#1603=LINE('',#1600,#1602);
#1604=EDGE_CURVE('',#1593,#117,#1603,.T.);
#1605=ORIENTED_EDGE('',*,*,#1604,.T.);
#1606=ORIENTED_EDGE('',*,*,#122,.F.);
#1607=EDGE_LOOP('',(#1591,#1599,#1605,#1606));
#1608=FACE_BOUND('',#1607,.T.);
#1609=ADVANCED_FACE('',(#1608),#1583,.F.);
#1610=CARTESIAN_POINT('',(95.667837556,-86.657567838,17.540531749));
#1611=DIRECTION('',(1.,0.,0.));
#1612=DIRECTION('',(0.,0.,-1.));
#1613=AXIS2_PLACEMENT_3D('',#1610,#1611,#1612);
#1614=PLANE('',#1613);
#1615=ORIENTED_EDGE('',*,*,#1604,.F.);
#1616=CARTESIAN_POINT('',(95.667837556,-84.657567838,25.599110393));
#1617=DIRECTION('',(0.,-1.,0.));
#1618=VECTOR('',#1617,0.658578644);
#1619=LINE('',#1616,#1618);
#1620=EDGE_CURVE('',#218,#1593,#1619,.T.);
#1621=ORIENTED_EDGE('',*,*,#1620,.F.);
#1622=ORIENTED_EDGE('',*,*,#223,.F.);
#1623=ORIENTED_EDGE('',*,*,#130,.F.);
#1624=EDGE_LOOP('',(#1615,#1621,#1622,#1623));
#1625=FACE_BOUND('',#1624,.T.);
#1626=ADVANCED_FACE('',(#1625),#1614,.F.);
#1627=CARTESIAN_POINT('',(-93.554070801,-86.657567838,17.540531749));
#1628=DIRECTION('',(1.,0.,0.));
#1629=DIRECTION('',(0.,0.,-1.));
#1630=AXIS2_PLACEMENT_3D('',#1627,#1628,#1629);
#1631=PLANE('',#1630);
#1632=ORIENTED_EDGE('',*,*,#206,.T.);
#1633=ORIENTED_EDGE('',*,*,#237,.T.);
#1634=CARTESIAN_POINT('',(-93.554070801,-84.657567838,25.599110393));
#1635=DIRECTION('',(0.,-1.,0.));
#1636=VECTOR('',#1635,0.658578644);
#1637=LINE('',#1634,#1636);
#1638=EDGE_CURVE('',#226,#1585,#1637,.T.);
#1639=ORIENTED_EDGE('',*,*,#1638,.T.);
#1640=ORIENTED_EDGE('',*,*,#1590,.T.);
#1641=EDGE_LOOP('',(#1632,#1633,#1639,#1640));
#1642=FACE_BOUND('',#1641,.T.);
#1643=ADVANCED_FACE('',(#1642),#1631,.T.);
#1644=CARTESIAN_POINT('',(96.667837556,-83.316146481,25.599110393));
#1645=DIRECTION('',(0.,0.,1.));
#1646=DIRECTION('',(1.,0.,0.));
#1647=AXIS2_PLACEMENT_3D('',#1644,#1645,#1646);
#1648=PLANE('',#1647);
#1649=ORIENTED_EDGE('',*,*,#1620,.T.);
#1650=ORIENTED_EDGE('',*,*,#1598,.T.);
#1651=ORIENTED_EDGE('',*,*,#1638,.F.);
#1652=ORIENTED_EDGE('',*,*,#231,.F.);
#1653=EDGE_LOOP('',(#1649,#1650,#1651,#1652));
#1654=FACE_BOUND('',#1653,.T.);
#1655=ADVANCED_FACE('',(#1654),#1648,.F.);
#1656=CARTESIAN_POINT('',(-98.843116622,-74.657567838,107.679640309));
#1657=DIRECTION('',(0.,0.,1.));
#1658=DIRECTION('',(1.,0.,0.));
#1659=AXIS2_PLACEMENT_3D('',#1656,#1657,#1658);
#1660=PLANE('',#1659);
#1661=ORIENTED_EDGE('',*,*,#57,.T.);
#1662=CARTESIAN_POINT('',(-98.843116622,-84.657567838,107.679640309));
#1663=DIRECTION('',(1.,0.,-0.));
#1664=VECTOR('',#1663,199.8);
#1665=LINE('',#1662,#1664);
#1666=EDGE_CURVE('',#43,#691,#1665,.T.);
#1667=ORIENTED_EDGE('',*,*,#1666,.T.);
#1668=ORIENTED_EDGE('',*,*,#696,.F.);
#1669=ORIENTED_EDGE('',*,*,#879,.F.);
#1670=EDGE_LOOP('',(#1661,#1667,#1668,#1669));
#1671=FACE_BOUND('',#1670,.T.);
#1672=ADVANCED_FACE('',(#1671),#1660,.T.);
#1673=CARTESIAN_POINT('',(-98.843116622,-84.657567838,103.679640309));
#1674=DIRECTION('',(1.,0.,0.));
#1675=DIRECTION('',(0.,0.,-1.));
#1676=AXIS2_PLACEMENT_3D('',#1673,#1674,#1675);
#1677=CYLINDRICAL_SURFACE('',#1676,4.);
#1678=ORIENTED_EDGE('',*,*,#49,.F.);
#1679=ORIENTED_EDGE('',*,*,#432,.F.);
#1680=ORIENTED_EDGE('',*,*,#703,.F.);
#1681=ORIENTED_EDGE('',*,*,#1666,.F.);
#1682=EDGE_LOOP('',(#1678,#1679,#1680,#1681));
#1683=FACE_BOUND('',#1682,.T.);
#1684=ADVANCED_FACE('',(#1683),#1677,.T.);
#1685=CLOSED_SHELL('',(#108,#210,#298,#412,#591,#622,#639,#663,#682,#741,#773,#846,#868,#894,#933,#957,#989,#1013,#1045,#1069,#1101,#1118,#1134,#1162,#1179,#1202,
#1219,#1242,#1259,#1282,#1294,#1316,#1333,#1350,#1362,#1387,#1404,#1416,#1440,#1457,#1470,#1501,#1525,#1549,#1566,#1578,#1609,#1626,#1643,#1655,#1672,
#1684));
#1686=MANIFOLD_SOLID_BREP('Lid - Front Rev2',#1685);
#26=STYLED_ITEM('',(),#1686);
#16=SHAPE_REPRESENTATION('root',(#15),#10);
#17=ADVANCED_BREP_SHAPE_REPRESENTATION('root',(#1686),#10);
#1694=SHAPE_REPRESENTATION_RELATIONSHIP('','',#16,#17);
#1695=APPLICATION_CONTEXT('configuration controlled 3D design of mechanical parts and assemblies');
#1696=APPLICATION_PROTOCOL_DEFINITION('international standard','configuration_control_3d_design_ed2_mim',2004,#1695);
#1697=PRODUCT_CONTEXT('',#1695,'mechanical');
#1698=PRODUCT_DEFINITION_CONTEXT('part definition',#1695,'design');
#24=PRODUCT('root','root','',(#1697));
#1699=PRODUCT_RELATED_PRODUCT_CATEGORY('part','',(#24));
#1700=PRODUCT_DEFINITION_FORMATION_WITH_SPECIFIED_SOURCE('','',#24,.NOT_KNOWN.);
#25=PRODUCT_DEFINITION('design','',#1700,#1698);
#23=PRODUCT_DEFINITION_SHAPE('','',#25);
#1701=SHAPE_DEFINITION_REPRESENTATION(#23,#16);
#11=DRAUGHTING_MODEL('',(),#10);
#1=MECHANICAL_DESIGN_GEOMETRIC_PRESENTATION_REPRESENTATION('',(#26),#10);
ENDSEC;
END-ISO-10303-21;
